<svg width="16" height="11" viewBox="0 0 16 11" fill="none" xmlns="http://www.w3.org/2000/svg">
<path d="M4.78125 4.98828H11.2001V5.70358H4.78125V4.98828Z" fill="#333333"/>
<path d="M5.13889 10.692H3.72705C2.7293 10.692 1.93888 9.90138 1.93888 8.90383L1.93872 1.78817C1.93872 0.790425 2.72934 0 3.72689 0H5.13874L5.13889 10.692ZM3.74585 0.715302C3.14343 0.715302 2.67298 1.18592 2.67298 1.78817V8.92251C2.67298 9.52493 3.14359 9.99538 3.74585 9.99538H4.44235V0.715461L3.74585 0.715302Z" fill="#333333"/>
<path d="M12.2541 10.6922H10.8423V0H12.2541C13.2519 0 14.0423 0.790624 14.0423 1.78817V8.92251C14.0425 9.92026 13.2518 10.6921 12.2541 10.6921V10.6922ZM11.5576 9.97686H12.2541C12.8565 9.97686 13.327 9.50624 13.327 8.90399L13.3272 1.78833C13.3272 1.18592 12.8565 0.715461 12.2543 0.715461H11.5578L11.5576 9.97686Z" fill="#333333"/>
<path d="M14.2119 8.565H13.3271V2.12744H14.2119C15.2096 2.12744 16 2.91807 16 3.91562V6.77682C16 7.77457 15.2094 8.56516 14.2119 8.56516V8.565ZM14.0425 7.8497H14.2119C14.8143 7.8497 15.2847 7.37908 15.2847 6.77682V3.91546C15.2847 3.31304 14.8141 2.84258 14.2119 2.84258H14.0425V7.8497Z" fill="#333333"/>
<path d="M2.67304 8.56467H1.78833C0.79058 8.56467 0.000155265 7.77404 0.000155265 6.77649L0 3.91513C0 2.91738 0.790623 2.12695 1.78817 2.12695H2.67288L2.67304 8.56467ZM1.78817 2.84218C1.18575 2.84218 0.715297 3.31279 0.715297 3.91505V6.77625C0.715297 7.37867 1.18591 7.84913 1.78817 7.84913H1.95756L1.95772 2.8421L1.78817 2.84218Z" fill="#333333"/>
</svg>
