<svg width="16" height="16" viewBox="0 0 16 16" fill="none"
    xmlns="http://www.w3.org/2000/svg">
    <path fill-rule="evenodd" clip-rule="evenodd" d="M7 0.8C3.57583 0.8 0.8 3.57583 0.8 7C0.8 10.4242 3.57583 13.2 7 13.2H7.50007C7.30631 12.7038 7.2 12.164 7.2 11.6C7.2 9.16995 9.16995 7.2 11.6 7.2C12.164 7.2 12.7038 7.30631 13.2 7.50007V7C13.2 3.57583 10.4242 0.8 7 0.8ZM14 7.91163V7C14 3.13401 10.866 0 7 0C3.13401 0 0 3.13401 0 7C0 10.866 3.134 14 7 14H7.91163C8.69617 15.2033 10.0548 16 11.6 16C14.0301 16 16 14.0301 16 11.6C16 10.0548 15.2033 8.69617 14 7.91163ZM7.2 2.8C7.42091 2.8 7.6 2.97909 7.6 3.2V7.2C7.6 7.42091 7.42091 7.6 7.2 7.6H4.4C4.17909 7.6 4 7.42091 4 7.2C4 6.97909 4.17909 6.8 4.4 6.8H6.8V3.2C6.8 2.97909 6.97909 2.8 7.2 2.8ZM11.6 8C9.61178 8 8 9.61178 8 11.6C8 12.2564 8.1753 12.8706 8.48137 13.3997C9.10443 14.4768 10.268 15.2 11.6 15.2C13.5882 15.2 15.2 13.5882 15.2 11.6C15.2 10.268 14.4768 9.10443 13.3997 8.48137C12.8706 8.1753 12.2564 8 11.6 8ZM11.6 9.2C11.8209 9.2 12 9.37909 12 9.6V12C12 12.2209 11.8209 12.4 11.6 12.4C11.3791 12.4 11.2 12.2209 11.2 12V9.6C11.2 9.37909 11.3791 9.2 11.6 9.2Z" fill="white"/>
    <path d="M12 13.6C12 13.8209 11.8209 14 11.6 14C11.379 14 11.2 13.8209 11.2 13.6C11.2 13.379 11.379 13.2 11.6 13.2C11.8209 13.2 12 13.379 12 13.6Z" fill="white"/>
</svg>
