<svg width="16" height="16" viewBox="0 0 16 16" fill="none"
    xmlns="http://www.w3.org/2000/svg">
    <path d="M10.7183 10.2468C10.6903 10.2468 10.6619 10.243 10.6335 10.2347L9.88048 10.0175C9.70472 9.96681 9.60008 9.77096 9.64672 9.58008C9.69344 9.38928 9.87392 9.27551 10.0495 9.32631L10.8027 9.54352C10.9784 9.59424 11.0831 9.79008 11.0363 9.98097C10.9972 10.1411 10.864 10.2468 10.7183 10.2468Z" fill="white"/>
    <path d="M10.7104 13.7515C10.6625 13.7515 10.6147 13.7448 10.5682 13.7313L8.34001 13.0885C8.09745 13.0185 7.92798 12.7794 7.92798 12.5071C7.92798 12.4547 7.93427 12.4025 7.94675 12.3519L7.95795 12.306C8.15641 11.4947 8.83442 10.9282 9.60668 10.9282C9.75428 10.9282 9.90204 10.9492 10.0458 10.9907C10.7929 11.2061 11.3147 11.9424 11.3147 12.781C11.3147 12.9411 11.2954 13.1015 11.2572 13.2577L11.2458 13.304C11.1814 13.5675 10.9612 13.7515 10.7104 13.7515ZM8.61162 12.4269L10.6345 13.0104C10.6489 12.9346 10.6561 12.8576 10.6561 12.781C10.6561 12.2662 10.3356 11.8142 9.87668 11.6818C9.78804 11.6563 9.69724 11.6434 9.60668 11.6434C9.15283 11.6434 8.75194 11.9624 8.61162 12.4269Z" fill="white"/>
    <path d="M12.758 8.93449C12.3492 8.93449 11.9386 8.74513 11.602 8.40144C11.4874 8.2844 11.465 8.09559 11.5487 7.95077C11.8356 7.45455 12.2547 7.14484 12.7287 7.07869C13.1975 7.01314 13.6852 7.20198 14.0736 7.59837C14.1883 7.71541 14.2107 7.90425 14.127 8.04903C13.8402 8.54536 13.421 8.85513 12.9468 8.92137C12.8844 8.93001 12.821 8.93449 12.758 8.93449ZM12.2931 8.07639C12.4766 8.19136 12.672 8.23872 12.8627 8.212C13.0527 8.18552 13.231 8.08543 13.3824 7.92359C13.1991 7.80867 13.0043 7.76128 12.8127 7.78804C12.6229 7.81453 12.4447 7.91451 12.2931 8.07639Z" fill="white"/>
    <path d="M10.0639 16C9.69344 16 9.32176 15.9514 8.95919 15.8556C8.78246 15.809 8.67406 15.6156 8.71702 15.4237C8.75998 15.2319 8.93807 15.1142 9.11479 15.1608C9.42648 15.2431 9.74584 15.2848 10.0639 15.2848C11.8787 15.2848 13.472 13.9528 13.9386 12.0457L15.3341 6.3419C15.3391 6.3217 15.3416 6.30136 15.3416 6.28144C15.3416 6.15213 15.2419 6.04875 15.1208 6.05315C15.0146 6.05763 14.9039 6.05987 14.7923 6.05987C13.767 6.05987 12.5878 5.87601 11.382 5.52814C10.6684 5.32228 9.97233 5.06435 9.34112 4.77292V6.84718C9.34112 9.06247 8.02581 11.0033 6.10784 11.674C6.1988 12.2368 6.39305 12.7821 6.67656 13.2662C6.77413 13.4328 6.72885 13.6538 6.57539 13.7598C6.42194 13.8658 6.21839 13.8166 6.12078 13.6499C5.73357 12.9888 5.48942 12.2293 5.41476 11.4535C5.39777 11.2769 5.50273 11.1135 5.66122 11.0697C7.44008 10.5792 8.68246 8.84287 8.68246 6.84721V4.22016C8.68246 4.09747 8.74038 3.98333 8.8359 3.91782C8.93135 3.85228 9.05111 3.84452 9.15327 3.89726C9.86425 4.26461 10.6935 4.58955 11.5511 4.837C12.7025 5.16916 13.8232 5.34474 14.7923 5.34474C14.8954 5.34474 14.9975 5.34263 15.0956 5.33852C15.1074 5.33805 15.1188 5.3378 15.13 5.3378C15.6098 5.3378 16.0001 5.76112 16.0001 6.28144C16.0001 6.36333 15.9902 6.44543 15.9707 6.52552L14.5751 12.2294C14.0321 14.4494 12.1769 16 10.0639 16ZM7.54723 15.1298C7.4813 15.1298 7.41475 15.1084 7.35689 15.0638L7.32801 15.0413C7.18058 14.9257 7.14738 14.7022 7.25388 14.5421C7.36035 14.3819 7.56623 14.3459 7.71367 14.4615L7.73813 14.4806C7.88642 14.5949 7.92133 14.8181 7.81605 14.9792C7.75183 15.0774 7.65031 15.1298 7.54723 15.1298Z" fill="white"/>
    <path d="M4.67065 11.9189C4.36619 11.9189 4.06158 11.8868 3.7653 11.8236C3.58684 11.7855 3.4706 11.5975 3.50567 11.4037C3.54074 11.21 3.71389 11.0838 3.89231 11.1218C4.14684 11.1761 4.40875 11.2037 4.67065 11.2037C5.00582 11.2037 5.33918 11.1586 5.66148 11.0697C7.24255 10.6337 8.41257 9.21947 8.64225 7.46664C8.66906 7.26188 8.68266 7.05349 8.68266 6.84719V0.945499C8.68266 0.803216 8.57329 0.715175 8.47193 0.715175C8.45089 0.715175 8.42961 0.71875 8.40849 0.725759C7.37506 1.07083 6.04757 1.26089 4.67068 1.26089C3.29379 1.26089 1.96626 1.07083 0.932779 0.725759C0.911738 0.71875 0.890394 0.715175 0.869386 0.715175C0.768024 0.715175 0.658625 0.803216 0.658625 0.945499V6.84719C0.658625 7.74599 0.908538 8.60873 1.38133 9.34219C1.48563 9.50403 1.44937 9.727 1.30039 9.84028C1.15141 9.95348 0.946051 9.91412 0.841753 9.75236C0.29108 8.8981 0 7.89349 0 6.84719V0.945499C0 0.424134 0.390005 0 0.869386 0C0.956123 0 1.04257 0.0141962 1.12638 0.0421953C2.09884 0.36692 3.35757 0.54575 4.67065 0.54575C5.98371 0.54575 7.24244 0.36692 8.21489 0.0421953C8.29881 0.0141962 8.38529 0 8.47193 0C8.9513 0 9.34131 0.424134 9.34131 0.945499V6.84719C9.34131 7.08709 9.32547 7.3294 9.29427 7.56741C9.16331 8.56657 8.7637 9.49219 8.1384 10.2444C7.51736 10.9914 6.7169 11.5166 5.82353 11.7629C5.44832 11.8664 5.06042 11.9189 4.67065 11.9189ZM2.31201 11.1633C2.25072 11.1633 2.18875 11.1448 2.13345 11.106L2.10359 11.0848C1.95174 10.9761 1.90975 10.7543 2.00983 10.5894C2.10994 10.4245 2.31418 10.3789 2.46603 10.4876L2.49119 10.5054C2.64389 10.6127 2.68762 10.8341 2.58883 10.9998C2.5258 11.1057 2.41995 11.1633 2.31201 11.1633Z" fill="white"/>
    <path d="M4.93994 5.38672H6.82959C6.98061 5.38672 7.10303 5.50914 7.10303 5.66016C7.10303 5.81117 6.98061 5.93359 6.82959 5.93359H4.93994V7.9917C4.93994 8.15485 4.80768 8.28711 4.64453 8.28711C4.48138 8.28711 4.34912 8.15485 4.34912 7.9917V5.93359H2.50342C2.3524 5.93359 2.22998 5.81117 2.22998 5.66016C2.22998 5.50914 2.3524 5.38672 2.50342 5.38672H4.34912V3.40674C4.34912 3.24359 4.48138 3.11133 4.64453 3.11133C4.80768 3.11133 4.93994 3.24359 4.93994 3.40674V5.38672Z" fill="white"/>
</svg>
