<svg width="20" height="20" viewBox="0 0 20 20" fill="none" xmlns="http://www.w3.org/2000/svg">
<path fill-rule="evenodd" clip-rule="evenodd" d="M12.7871 1.0477C13.0328 0.93209 13.3258 1.03366 13.4472 1.2765L14.3257 3.03354L17.4947 3.00013C17.6282 2.99873 17.7568 3.05078 17.8517 3.14469C17.9466 3.23861 18 3.36658 18 3.50011V8.00011H19.5C19.7761 8.00011 20 8.22396 20 8.50011V13.0001C20 13.2762 19.7761 13.5001 19.5 13.5001H18V18.5001C18 18.7762 17.7761 19.0001 17.5 19.0001H0.5C0.223858 19.0001 0 18.7762 0 18.5001V3.50011C0 3.22396 0.223858 3.00011 0.5 3.00011H8.63823L12.7871 1.0477ZM6.51323 4.00011H1V18.0001H17V13.5001H13.5C13.2239 13.5001 13 13.2762 13 13.0001V8.50011C13 8.22396 13.2239 8.00011 13.5 8.00011H17V6.00011H2.5C2.22386 6.00011 2 5.77625 2 5.50011C2 5.22396 2.22386 5.00011 2.5 5.00011H4.38823L6.51323 4.00011ZM6.73677 5.00011H14.191L13.5757 3.76962C13.5724 3.76334 13.5693 3.75699 13.5662 3.75056L12.7711 2.1604L6.73677 5.00011ZM14.8231 4.02835L15.309 5.00011H17V4.0054L14.8231 4.02835ZM14 9.00011V12.5001H19V9.00011H14Z" fill="#333333"/>
</svg>
