<svg width="20" height="20" viewBox="0 0 20 20" fill="none" xmlns="http://www.w3.org/2000/svg">
<path d="M0.256348 18.7176V3.33302H8.71789L13.0769 1.28174L14.1025 3.33302L14.1213 3.37066L17.6922 3.33302V5.3843V8.46123H19.7435V13.0766H17.6922V18.7176H0.256348Z" fill="#D00737"/>
<path fill-rule="evenodd" clip-rule="evenodd" d="M12.9677 1.04985C13.0937 0.990565 13.244 1.04265 13.3063 1.16718L14.279 3.11269L17.6896 3.07674C17.7581 3.07602 17.824 3.10271 17.8727 3.15087C17.9213 3.19904 17.9487 3.26466 17.9487 3.33314V8.20493H19.7436C19.8852 8.20493 20 8.31973 20 8.46134V13.0767C20 13.2183 19.8852 13.3331 19.7436 13.3331H17.9487V18.7178C17.9487 18.8594 17.8339 18.9742 17.6923 18.9742H0.25641C0.114799 18.9742 0 18.8594 0 18.7178V3.33314C0 3.19153 0.114799 3.07673 0.25641 3.07673H8.66063L12.9677 1.04985ZM7.57089 3.58955H0.512821V18.4613H17.4359V13.3331H13.5897C13.4481 13.3331 13.3333 13.2183 13.3333 13.0767V8.46134C13.3333 8.31973 13.4481 8.20493 13.5897 8.20493H17.4359V5.64083H2.30769C2.16608 5.64083 2.05128 5.52603 2.05128 5.38442C2.05128 5.24281 2.16608 5.12801 2.30769 5.12801H4.30166L7.57089 3.58955ZM5.50604 5.12801H14.7133L13.8944 3.49014C13.8927 3.48694 13.8911 3.48371 13.8895 3.48043L12.9596 1.62047L5.50604 5.12801ZM14.5341 3.62285L15.2867 5.12801H17.4359V3.59226L14.5341 3.62285ZM13.8462 8.71775V12.8203H19.4872V8.71775H13.8462Z" fill="white"/>
</svg>
