<svg width="15" height="16" viewBox="0 0 15 16" fill="none" xmlns="http://www.w3.org/2000/svg">
<path d="M14.0085 16H9.68283C9.44162 15.9997 9.21052 15.9037 9.03998 15.7331C8.86944 15.5626 8.77354 15.3315 8.77325 15.0903V10.5019C8.77325 9.97441 8.49185 9.48715 8.03508 9.22348C7.57846 8.95968 7.01567 8.95968 6.5589 9.22348C6.10212 9.48713 5.82073 9.97441 5.82073 10.5019V15.0903C5.82044 15.3315 5.72454 15.5627 5.554 15.7333C5.38331 15.9038 5.15207 15.9997 4.91084 16H0.551065C0.405016 16 0.26483 15.9419 0.161448 15.8385C0.0580657 15.7352 0 15.595 0 15.4489V5.73534C0 5.56436 0.0793312 5.40306 0.214824 5.2988L6.94331 0.11467C7.0398 0.0403245 7.15814 0 7.27984 0C7.4017 0 7.52003 0.0403245 7.61637 0.11467L14.3452 5.2988C14.4807 5.40306 14.5601 5.56436 14.5601 5.73534V15.4489C14.5601 15.5951 14.502 15.7353 14.3986 15.8387C14.2951 15.9419 14.1549 16 14.0087 16L14.0085 16ZM9.87541 14.8977H13.4573V6.00663L7.27989 1.24706L1.10247 6.00663V14.8977H4.71793V10.5019C4.71793 9.5806 5.20946 8.72922 6.00732 8.26865C6.80532 7.80794 7.78836 7.80794 8.58621 8.26865C9.38406 8.72925 9.8756 9.5806 9.8756 10.5019L9.87541 14.8977Z"/>
</svg>
