<svg width="18" height="20" viewBox="0 0 18 20" fill="none" xmlns="http://www.w3.org/2000/svg">
<path fill-rule="evenodd" clip-rule="evenodd" d="M8.69627 0.102821C8.87555 -0.0342737 9.12445 -0.0342737 9.30372 0.102821L17.8037 6.60282C17.9274 6.69742 18 6.84426 18 7V19.5C18 19.7761 17.7761 20 17.5 20H11.5C11.2239 20 11 19.7761 11 19.5V13.1554C11 12.0509 10.1046 11.1554 9 11.1554C7.89543 11.1554 7 12.0509 7 13.1554V19.5C7 19.7761 6.77614 20 6.5 20H0.5C0.223858 20 0 19.7761 0 19.5V7C0 6.84426 0.0725655 6.69742 0.196275 6.60282L8.69627 0.102821Z" fill="#D00737"/>
</svg>
