<svg width="1011" height="863" viewBox="0 0 1011 863" fill="none" xmlns="http://www.w3.org/2000/svg">
<path fill-rule="evenodd" clip-rule="evenodd" d="M811.072 37.6012V60.0283L647 181.796L611.455 181.796L719.982 37.6019L811.072 37.6012ZM1011 37.6012V60.0283L846.928 181.796L811.419 181.796L919.982 37.6019L1011 37.6012ZM60 0.0283203H572.383L238.896 333.799C247.484 332.959 256.192 332.528 265 332.528C411.355 332.528 530 451.173 530 597.528C530 710.746 621.782 802.528 735 802.528C848.218 802.528 940 710.746 940 597.528C940 484.31 848.218 392.528 735 392.528C675.914 392.528 622.705 417.486 585.255 457.522C575.923 435.515 569.816 423.588 552.5 405.386C599.994 360.265 664.278 332.528 735 332.528C881.355 332.528 1000 451.173 1000 597.528C1000 743.884 881.355 862.528 735 862.528C632.876 862.528 544.245 804.761 500 720.12C455.755 804.761 367.124 862.528 265 862.528C188.624 862.528 119.758 830.179 71.437 778.522C27.1523 731.179 0 667.492 0 597.528C0 597.528 53.5 802.528 265 802.528C378.218 802.528 470 710.746 470 597.528C470 484.31 378.218 392.528 265 392.528C210.978 392.528 161.868 413.392 125.225 447.567L114.568 458.233V373.344L427.617 60.0283H0L60 0.0283203Z"/>
</svg>
