<svg width="40" height="36" viewBox="0 0 40 36" fill="none"
    xmlns="http://www.w3.org/2000/svg">
    <path fill-rule="evenodd" clip-rule="evenodd" d="M32.0899 2.42406V3.31139L25.5984 8.12908L24.1921 8.1291L28.4859 2.42409L32.0899 2.42406ZM40 2.42406V3.31139L33.5085 8.12908L32.1036 8.1291L36.3989 2.42409L40 2.42406ZM2.37389 0.9375H22.6462L9.45187 14.1431C9.79166 14.1098 10.1362 14.0928 10.4847 14.0928C16.2752 14.0928 20.9693 18.7869 20.9693 24.5774C20.9693 29.0569 24.6007 32.6882 29.0801 32.6882C33.5596 32.6882 37.1909 29.0569 37.1909 24.5774C37.1909 20.098 33.5596 16.4667 29.0801 16.4667C26.7424 16.4667 24.6372 17.4541 23.1555 19.0381C22.7863 18.1674 22.5446 17.6956 21.8595 16.9754C23.7386 15.1902 26.282 14.0928 29.0801 14.0928C34.8706 14.0928 39.5648 18.7869 39.5648 24.5774C39.5648 30.368 34.8706 35.0621 29.0801 35.0621C25.0396 35.0621 21.5329 32.7766 19.7824 29.4278C18.0319 32.7766 14.5252 35.0621 10.4847 35.0621C7.46289 35.0621 4.73818 33.7822 2.82639 31.7384C1.07427 29.8653 0 27.3455 0 24.5774C0 24.5774 2.11672 32.6882 10.4847 32.6882C14.9641 32.6882 18.5955 29.0569 18.5955 24.5774C18.5955 20.098 14.9641 16.4667 10.4847 16.4667C8.34731 16.4667 6.40429 17.2921 4.95449 18.6443L4.53287 19.0663V15.7076L16.9186 3.31139H0L2.37389 0.9375Z" fill="white"/>
    <path d="M34.4865 24.5778C34.4865 27.5613 32.0679 29.9799 29.0844 29.9799C26.101 29.9799 23.6824 27.5613 23.6824 24.5778C23.6824 21.5944 26.101 19.1758 29.0844 19.1758C32.0679 19.1758 34.4865 21.5944 34.4865 24.5778Z" fill="white"/>
</svg>
