<svg width="218" height="193" viewBox="0 0 218 193" fill="none"
    xmlns="http://www.w3.org/2000/svg">
    <path opacity="0.5" fill-rule="evenodd" clip-rule="evenodd" d="M40.3343 1.92564C35.7188 3.04334 28.0961 6.51066 24.4494 9.15106C8.46827 20.7226 -0.0102868 39.5106 1.0962 60.8999C2.44295 86.934 14.7903 104.135 36.2954 109.934C37.724 110.319 42.0545 110.922 45.9181 111.273L52.9434 111.913L56.957 115.161C59.1648 116.948 63.3888 119.591 66.3445 121.035C73.3633 124.464 79.0119 130.078 84.619 139.197C91.1917 149.886 93.6404 153.415 100.657 162.311C111.84 176.489 115.004 178.723 133.373 185.41C155.25 193.374 154.701 193.207 158.005 192.89C164.29 192.286 177.996 181.541 183.543 172.87C187.37 166.885 193.268 154.56 201.539 135.262C205.899 125.089 209.723 116.498 210.038 116.169C211.108 115.048 215.382 118.004 222.165 124.556C225.861 128.126 229.135 131.135 229.443 131.243C229.75 131.35 230.664 128.721 231.474 125.401C232.611 120.737 232.958 117.369 232.997 110.601C233.055 100.652 232.336 96.8861 229.094 90.1553C226.467 84.6992 223.027 80.9502 217.233 77.2259C209.646 72.3501 207.083 68.6348 209.752 66.3813C210.333 65.8919 212.159 65.0021 213.811 64.4056L216.814 63.3197L212.674 63.2697C209.09 63.2256 207.3 63.713 199.362 66.8901C189.107 70.9955 185.72 71.4699 182.034 69.3176C179.314 67.73 176.708 63.9953 175.172 59.4869C174.535 57.6131 173.808 56.0793 173.558 56.0793C172.972 56.0793 168.213 61.7983 167.211 63.7059C166.789 64.5094 166.193 65.1663 165.887 65.1663C164.867 65.1663 163.149 59.753 162.782 55.3848C161.691 42.3671 171.155 28.6309 186.779 20.5578C191.818 17.9537 192.785 17.8609 189.476 20.3001C188.083 21.3269 186.011 23.1521 184.871 24.3568C182.431 26.9355 176.879 35.2442 176.879 36.3178C176.879 36.728 179.15 34.8431 181.927 32.1294C190.706 23.55 199.905 19.4953 215.448 17.3546C219.949 16.7348 223.632 16.0331 223.632 15.7962C223.632 15.2452 216.385 11.9829 212.677 10.8659C207.835 9.40679 198.594 9.12185 192.788 10.2532C187.569 11.2696 177.942 15.5087 173.957 18.545C166.71 24.0673 160.46 32.8505 157.538 41.6194C156.084 45.9844 155.844 47.8738 155.765 55.5756L155.675 64.4841L151.354 68.4408C143.464 75.6675 140.023 85.8059 140.791 99.5668C141 103.315 141.454 107.55 141.801 108.978C142.663 112.53 142.012 116.021 140.598 115.427C138.227 114.429 134.015 113.901 128.178 113.871C122.666 113.842 117.139 113 117.139 112.188C117.139 112.023 118.923 109.773 121.103 107.188C128.24 98.7224 133.449 88.3204 135.727 77.9807C137.153 71.5095 137.125 59.2163 135.67 52.1849C131.57 32.3747 118.541 16.1844 102.204 10.5978C96.5151 8.65258 85.3041 8.13657 79.8509 9.56971L76.0035 10.5803L73.8983 8.73241C71.21 6.37306 64.5264 3.07904 59.9674 1.86593C55.5317 0.686578 45.3246 0.717081 40.3343 1.92564ZM28.3091 15.8429C21.3929 22.5407 16.3039 29.8291 13.8812 36.5067C7.14617 55.072 7.54484 69.4351 15.2708 86.5257C16.3052 88.813 17.0338 90.8018 16.891 90.9446C16.5065 91.3288 12.1696 84.0119 10.404 80.0006C2.70074 62.4999 6.31955 37.2174 18.5098 23.3741C20.9591 20.5928 31.8792 11.2936 32.6961 11.2936C32.8668 11.2936 30.8928 13.3408 28.3091 15.8429ZM63.794 28.3317C54.6706 37.3167 50.0629 45.5469 46.8979 58.5114C44.9603 66.4462 44.9525 77.7666 46.8791 84.9991C48.3103 90.3727 50.8447 97.5177 52.5921 101.106L53.581 103.137L52.2239 101.514C50.1408 99.0242 45.235 88.6715 44.0733 84.3137C39.7168 67.9767 44.5323 46.5938 55.2602 34.6413C57.8738 31.7282 68.1678 22.9769 68.9795 22.9769C69.1178 22.9769 66.7841 25.3868 63.794 28.3317ZM97.9833 35.5448C110.622 38.9277 119.405 50.7388 120.741 66.1456C121.902 79.5424 114.181 94.6955 103.472 100.035C90.3794 106.562 75.4723 100.855 68.2535 86.5484C64.1225 78.3624 62.9985 69.8564 64.8693 60.9473C68.5497 43.427 83.7801 31.7425 97.9833 35.5448ZM92.6521 59.951C89.6054 61.808 87.9184 65.5687 87.9184 70.5054C87.9184 75.3429 89.3112 78.4306 92.4632 80.5816C95.8508 82.8923 99.1066 82.5671 102.206 79.608C103.609 78.2696 104.931 76.2977 105.144 75.2268C105.49 73.4957 105.446 73.4236 104.754 74.5777C102.827 77.7873 101.357 78.7966 98.6073 78.7966C93.6573 78.7966 90.7028 74.9074 91.3424 69.2346C91.6177 66.7967 92.1534 65.7569 94.0138 64.0525C97.6508 60.7208 101.666 61.2414 104.185 65.3701C105.652 67.7755 105.902 66.6227 104.5 63.9129C101.984 59.0494 96.9131 57.3534 92.6521 59.951ZM179.198 72.82C182.713 74.6212 184.487 76.6969 186.32 81.154L187.887 84.9628L187.902 81.5123C187.942 72.7291 191.572 73.8838 196.411 84.2196C199.478 90.7726 200.151 97.099 198.674 105.528C198.037 109.172 197.279 112.753 196.991 113.486C196.702 114.22 195.508 117.986 194.337 121.856L192.209 128.893L190.983 127.211C189.202 124.766 188.569 125.132 188.554 128.613C188.519 137.187 185.685 147.539 181.428 154.643C179.078 158.564 171.479 167.07 170.325 167.07C169.608 167.07 168.872 165.811 168.113 163.289C167.284 160.534 166.483 160.571 165.507 163.408C164.508 166.314 162.132 169.224 159.671 170.556C156.48 172.283 147.754 174.21 143.171 174.2C134.934 174.182 127.376 171.604 120.425 166.444C116.426 163.475 108.092 155.373 102.475 148.995L99.9904 146.173L103.533 146.543C105.48 146.747 109.996 147.073 113.568 147.269L120.061 147.624L114.542 145.778C103.84 142.199 94.0352 136.459 86.9807 129.643L83.7704 126.541L89.5781 125.796C95.4878 125.039 101.974 122.927 106.647 120.238C109.209 118.765 109.268 118.761 111.712 119.926C115.171 121.575 122.837 122.933 128.722 122.938C143.132 122.952 152.768 127.722 162.15 139.484L164.739 142.73L164.308 139.973C163.239 133.136 158.715 126.19 152.577 121.964C150.586 120.594 148.957 119.268 148.957 119.019C148.957 118.769 149.565 117.791 150.309 116.846L151.662 115.128L154.523 117.647C159.687 122.189 165.652 122.7 172.811 119.211C180.506 115.461 186.623 107.844 188.872 99.215C190.453 93.1469 190.2 92.2784 187.748 95.3479C181.12 103.642 172.067 111.466 167.204 113.103C161.998 114.856 156.239 113.123 153.101 108.86C147.527 101.286 146.888 92.0292 151.386 83.9892C157.15 73.6859 170.46 68.3414 179.198 72.82ZM218.926 88.2685C222.848 90.8044 226.614 100.327 227.841 110.814C228.255 114.349 228.205 114.556 227.094 113.954C226.44 113.6 223.567 110.95 220.71 108.063C211.281 98.5387 208.244 91.164 212.403 87.894C214.29 86.4095 216.223 86.5205 218.926 88.2685Z" fill="#7B0421" stroke="#FFFFFF"/>
</svg>
