<svg width="20" height="14" viewBox="0 0 20 14" fill="none"
    xmlns="http://www.w3.org/2000/svg">
    <path fill-rule="evenodd" clip-rule="evenodd" d="M0 1.09091C0 0.764559 0.265969 0.5 0.594059 0.5H19.4059C19.734 0.5 20 0.764559 20 1.09091C20 1.41726 19.734 1.68182 19.4059 1.68182H0.594059C0.265969 1.68182 0 1.41726 0 1.09091ZM0 7C0 6.67365 0.265969 6.40909 0.594059 6.40909H13.9604C14.2885 6.40909 14.5545 6.67365 14.5545 7C14.5545 7.32635 14.2885 7.59091 13.9604 7.59091H0.594059C0.265969 7.59091 0 7.32635 0 7ZM0 12.9091C0 12.5827 0.265969 12.3182 0.594059 12.3182H15.9406C16.2687 12.3182 16.5347 12.5827 16.5347 12.9091C16.5347 13.2354 16.2687 13.5 15.9406 13.5H0.594059C0.265969 13.5 0 13.2354 0 12.9091Z" fill="white"/>
</svg>
