<svg width="16" height="16" viewBox="0 0 16 16" fill="none" xmlns="http://www.w3.org/2000/svg">
<path fill-rule="evenodd" clip-rule="evenodd" d="M0 3.27351C0 3.01243 0.212776 2.80078 0.475248 2.80078H15.5248C15.7872 2.80078 16 3.01243 16 3.27351C16 3.53459 15.7872 3.74624 15.5248 3.74624H0.475248C0.212776 3.74624 0 3.53459 0 3.27351ZM0 8.00078C0 7.7397 0.212776 7.52805 0.475248 7.52805H11.1683C11.4308 7.52805 11.6436 7.7397 11.6436 8.00078C11.6436 8.26186 11.4308 8.47351 11.1683 8.47351H0.475248C0.212776 8.47351 0 8.26186 0 8.00078ZM0 12.7281C0 12.467 0.212776 12.2553 0.475248 12.2553H12.7525C13.0149 12.2553 13.2277 12.467 13.2277 12.7281C13.2277 12.9891 13.0149 13.2008 12.7525 13.2008H0.475248C0.212776 13.2008 0 12.9891 0 12.7281Z" fill="#D00737"/>
</svg>
