<svg width="436" height="293" viewBox="0 0 436 293"
    xmlns="http://www.w3.org/2000/svg">
    <path fill-rule="evenodd" clip-rule="evenodd" d="M147.199 0.48904C144.206 1.45904 142 2.49254 142 2.92504C142 3.13304 141.746 3.30304 141.436 3.30304C141.126 3.30304 139.045 4.83154 136.811 6.70004C129.969 12.424 129.972 12.422 126.115 12.126C124.264 11.984 121.288 11.628 119.5 11.3345C108.432 9.51704 104.584 10.199 99.985 14.791C97.4435 17.329 95 20.4845 95 21.228C95 21.4985 94.831 21.7945 94.625 21.8865C94.2705 22.044 92.823 24.9215 91.1455 28.803C90.7295 29.7655 90.189 30.9435 89.9445 31.421C89.7 31.8985 89.5 32.8415 89.5 33.5165C89.5 34.1915 89.299 34.8685 89.053 35.0205C88.807 35.1725 88.4905 36.142 88.35 37.175C88.209 38.208 87.606 41.6405 87.01 44.803C86.21 49.046 85.983 51.7735 86.145 55.2105C86.395 60.5265 86.308 60.697 82.677 61.995C81.342 62.472 79.8595 63.074 79.382 63.333C78.9045 63.5915 78.173 63.803 77.757 63.803C77.3405 63.803 77 64.028 77 64.303C77 64.578 76.684 64.803 76.298 64.803C75.912 64.803 74.203 65.5905 72.5 66.553C70.797 67.5155 69.287 68.303 69.144 68.303C68.654 68.303 63.751 72.019 62.239 73.5365C58.428 77.3605 58.7535 81.676 63 83.6275C68.542 86.175 72.635 86.803 83.6905 86.803C90.887 86.803 93.973 86.976 94.4 87.403C95.25 88.253 95.25 109.353 94.4 110.203C93.986 110.617 91.4455 110.803 86.204 110.803H78.6085L78.305 112.013C78.138 112.678 78.0195 115.509 78.0425 118.305C78.065 121.1 77.969 123.501 77.8295 123.641C77.3175 124.152 75.6915 123.222 73.2815 121.039C70.7175 118.717 69.5525 118.399 67.1485 119.366C66.3795 119.675 65.3 120.098 64.75 120.307C59.821 122.177 56.6085 123.458 55.882 123.843C55.4045 124.096 54.67 124.303 54.25 124.303C53.83 124.303 53.0955 124.506 52.618 124.753C52.1405 125.001 50.175 125.806 48.25 126.543C46.325 127.28 44.3595 128.09 43.882 128.343C43.4045 128.596 42.67 128.803 42.25 128.803C41.83 128.803 41.0955 129.002 40.618 129.245C39.6805 129.722 38.5025 130.204 35 131.545C33.7625 132.018 32.3595 132.608 31.882 132.855C31.4045 133.101 30.67 133.303 30.25 133.303C29.83 133.303 29.0955 133.502 28.618 133.745C27.704 134.21 26.6775 134.632 23 136.053C19.3225 137.475 18.296 137.896 17.382 138.362C16.9045 138.605 16.17 138.803 15.75 138.803C15.33 138.803 14.5955 139.01 14.118 139.263C13.6405 139.517 11.675 140.327 9.75 141.063C7.825 141.8 5.8595 142.606 5.382 142.853C4.9045 143.101 3.892 143.31 3.132 143.319C1.6365 143.336 0 144.327 0 145.216C0 145.52 1.2375 147.687 2.75 150.031C4.2625 152.376 5.5 154.521 5.5 154.799C5.5 155.076 5.725 155.303 6 155.303C6.275 155.303 6.5 155.539 6.5 155.827C6.5 156.115 7.2875 157.582 8.25 159.087C9.2125 160.592 10 161.928 10 162.058C10 162.187 11.0125 163.873 12.25 165.803C13.4875 167.734 14.5 169.419 14.5 169.549C14.5 169.678 15.2875 171.015 16.25 172.52C17.2125 174.024 18 175.491 18 175.779C18 176.067 18.17 176.303 18.378 176.303C18.586 176.303 19.074 177.035 19.463 177.928C19.8515 178.822 20.319 179.666 20.501 179.803C21.0005 180.18 24.5 186.293 24.5 186.788C24.5 187.026 24.669 187.295 24.875 187.387C25.64 187.727 28.0545 191.899 27.905 192.622C27.8195 193.034 27.075 193.75 26.25 194.212C23.6975 195.643 19.2335 200.429 18.004 203.053C17.1485 204.88 16.771 206.743 16.603 209.969C16.3975 213.928 16.518 214.752 17.768 217.938C19.055 221.219 21.7755 224.635 25.0735 227.114C27.1435 228.669 31.9085 229.803 36.2835 229.781C40.444 229.761 44.981 228.989 45.809 228.161C46.006 227.964 46.5605 227.803 47.0415 227.803C47.523 227.803 47.9915 227.595 48.0835 227.34C48.175 227.086 48.8225 226.735 49.522 226.562C50.698 226.27 51.15 226.766 55.522 233.142C58.1225 236.935 60.3225 240.323 60.4115 240.671C60.5005 241.019 60.7405 241.303 60.9445 241.303C61.149 241.303 61.822 242.203 62.44 243.304C63.4545 245.109 63.5025 245.487 62.93 247.179C62.5815 248.21 62.117 249.267 61.898 249.528C61.679 249.79 61.5 250.483 61.5 251.07C61.5 251.657 61.346 252.291 61.1575 252.479C60.5635 253.073 59.5155 256.498 59.5075 257.87C59.499 259.403 60.192 259.716 65 260.354C66.7875 260.591 69.825 260.994 71.75 261.25C73.675 261.506 77.1625 261.959 79.5 262.257C81.8375 262.555 84.3125 262.937 85 263.105C86.925 263.578 97.092 264.57 112.25 265.763C123.054 266.614 148.427 267.309 165.163 267.212C178.957 267.132 181.649 267.232 182.031 267.835C182.28 268.23 182.488 271.09 182.492 274.191C182.501 280.591 182.674 280.342 177.75 281.002C173.49 281.572 170.893 282.496 169.418 283.967C167.466 285.913 167.485 288.307 169.471 290.431L170.942 292.005L181.346 292.338C187.07 292.522 191.964 292.476 192.225 292.237C192.486 291.999 193.161 291.796 193.725 291.787C194.939 291.769 196.996 290.037 197.876 288.294C198.3 287.455 198.543 283.894 198.626 277.303L198.75 267.553L205.148 267.296C208.666 267.154 211.704 266.809 211.898 266.529C212.49 265.672 217.345 262.303 217.987 262.303C218.319 262.303 219.837 263.369 221.361 264.671L224.133 267.038L230.191 267.053C233.523 267.061 236.532 267.247 236.875 267.465C237.341 267.761 237.5 270.406 237.5 277.858C237.5 288.604 237.784 290.065 240.082 291.129C242.386 292.196 245.642 292.724 246.922 292.238C247.606 291.978 251.714 291.829 256.049 291.909L263.931 292.053L265.466 290.585C266.643 289.459 267 288.681 267 287.248C267 283.912 264.106 282.009 257.519 281.016C253.575 280.421 253.499 280.289 253.508 274.058C253.512 271.03 253.722 268.227 253.974 267.829C254.359 267.22 256.795 267.121 269.341 267.203C285.057 267.307 313.632 266.561 323.75 265.783C338.459 264.652 349.561 263.581 351.5 263.107C352.188 262.939 354.775 262.55 357.25 262.244C359.725 261.938 363.156 261.488 364.875 261.245C366.594 261.002 369.406 260.604 371.125 260.36C375.844 259.691 376.501 259.387 376.492 257.87C376.484 256.498 375.436 253.073 374.842 252.479C374.654 252.291 374.5 251.649 374.5 251.053C374.5 250.457 374.335 249.805 374.134 249.603C373.932 249.402 373.514 248.382 373.206 247.337C372.725 245.709 372.776 245.266 373.561 244.245C374.065 243.59 374.483 242.908 374.489 242.731C374.522 241.781 385.666 225.803 386.295 225.803C386.706 225.803 387.525 226.253 388.115 226.803C388.705 227.353 389.558 227.803 390.011 227.803C390.463 227.803 390.994 227.964 391.191 228.161C393.293 230.263 407.219 230.251 409.324 228.146C409.513 227.957 409.964 227.803 410.328 227.803C411.983 227.803 416.659 223.156 418.219 219.96C418.999 218.361 419.832 216.663 420.069 216.185C420.306 215.708 420.5 213.369 420.5 210.988C420.5 207.085 420.332 206.308 418.789 203.1C416.936 199.248 413.675 195.783 410.253 194.03C409.154 193.467 408.183 192.635 408.095 192.181C408.008 191.726 408.739 190.101 409.719 188.569C410.698 187.037 411.5 185.674 411.5 185.539C411.5 185.404 412.737 183.376 414.25 181.031C415.763 178.687 417 176.659 417 176.525C417 176.231 419.619 172.156 420.035 171.803C420.197 171.666 420.648 170.822 421.037 169.928C421.426 169.034 421.914 168.303 422.122 168.303C422.33 168.303 422.5 168.061 422.5 167.766C422.5 167.47 423.513 165.663 424.75 163.75C425.987 161.837 427 160.169 427 160.043C427 159.917 428.013 158.234 429.25 156.303C430.487 154.373 431.5 152.57 431.5 152.298C431.5 152.026 431.699 151.803 431.941 151.803C432.184 151.803 432.516 151.409 432.677 150.928C432.963 150.078 433.293 149.512 435.125 146.728C435.606 145.997 436 145.188 436 144.931C436 144.287 433.716 143.303 432.22 143.303C431.542 143.303 430.596 143.092 430.118 142.834C429.641 142.576 427.562 141.771 425.5 141.044C421.524 139.644 419.792 138.962 418.382 138.245C417.904 138.002 417.105 137.803 416.607 137.803C416.108 137.803 415.487 137.624 415.225 137.404C414.964 137.185 413.513 136.591 412 136.084C410.487 135.578 409.036 134.97 408.775 134.733C408.513 134.497 407.796 134.303 407.18 134.303C406.563 134.303 405.92 134.078 405.75 133.803C405.58 133.528 405.001 133.303 404.464 133.303C403.926 133.303 403.096 133.101 402.618 132.855C402.141 132.608 400.737 132.018 399.5 131.545C395.997 130.204 394.819 129.722 393.882 129.245C393.404 129.002 392.574 128.803 392.036 128.803C391.499 128.803 390.92 128.578 390.75 128.303C390.58 128.028 389.937 127.803 389.32 127.803C388.704 127.803 387.987 127.61 387.725 127.373C387.464 127.137 386.013 126.529 384.5 126.022C382.987 125.516 381.536 124.922 381.275 124.702C381.013 124.483 380.327 124.303 379.75 124.303C379.173 124.303 378.487 124.124 378.225 123.904C377.964 123.685 376.513 123.091 375 122.584C373.487 122.078 372.036 121.47 371.775 121.233C371.513 120.997 370.782 120.803 370.15 120.803C369.517 120.803 369 120.578 369 120.303C369 120.028 368.451 119.803 367.78 119.803C367.108 119.803 366.42 119.578 366.25 119.303C365.782 118.546 362.131 118.705 361.13 119.526C356.39 123.414 355.27 124.22 354.914 124C354.686 123.859 354.5 120.953 354.5 117.541C354.5 111.92 354.409 111.29 353.533 110.821C353.001 110.536 349.867 110.303 346.569 110.303C341.77 110.303 340.413 110.145 339.781 109.513C339.082 108.814 339.027 107.014 339.305 93.8785C339.719 74.2595 339.239 71.858 334.409 69.394L332.25 68.2925L262.792 68.1725C207.939 68.078 193.29 67.922 193.126 67.431C193.012 67.089 193.552 66.568 194.327 66.274C202.607 63.1255 210.307 58.8315 213.863 55.3785C216.76 52.566 217.711 50.21 216.88 47.909C215.857 45.0775 214.362 44.254 205.75 41.78C204.925 41.543 200.344 41.2825 195.57 41.201L186.891 41.053L185.945 39.726C185.425 38.996 185 38.0365 185 37.594C185 37.1515 184.775 36.3425 184.5 35.796C184.225 35.25 183.775 34.356 183.5 33.81C183.225 33.2635 183 32.476 183 32.06C183 31.6435 182.823 31.303 182.607 31.303C182.391 31.303 181.548 30.0665 180.732 28.5545C179.917 27.043 179.081 25.8055 178.875 25.8045C178.669 25.804 178.5 25.562 178.5 25.2675C178.5 24.5695 174.306 18.6935 171.75 15.8105C166.702 10.117 161.049 4.88804 158.135 3.21604C152.44 -0.0519631 150.421 -0.55496 147.199 0.48904ZM156.163 6.11754C160.156 8.69354 168.151 16.452 171.542 21.042C172.757 22.686 174.369 24.6885 175.126 25.492C176.541 26.994 178 29.5375 178 30.5005C178 30.7995 178.799 32.6615 179.776 34.6385C180.753 36.6155 181.597 38.8675 181.651 39.643L181.75 41.053L177.5 41.1575C170.55 41.328 154.754 43.259 143.75 45.283C142.375 45.536 140.013 45.9695 138.5 46.246C133.173 47.22 121.789 49.6805 117.5 50.7855C111.404 52.3555 105.572 53.921 104.5 54.2745C103.812 54.5015 102.237 54.964 101 55.302C99.7625 55.64 98.3 56.0855 97.75 56.291C92.301 58.33 90.575 58.7205 90.29 57.9775C89.78 56.648 89.968 42.382 90.5 42.053C90.775 41.883 91 41.3575 91 40.8845C91 40.087 93.025 33.3245 93.944 31.053C97.371 22.584 101.416 16.8865 105.469 14.8185C107.94 13.5585 113.286 13.456 118.572 14.5685C124.467 15.808 128.989 16.035 131 15.191C131.962 14.787 134.662 12.881 137 10.9545C144.168 5.04754 146.282 3.85754 149.663 3.82854C152.297 3.80554 152.918 4.02404 156.163 6.11754ZM379.833 38.1365C379.65 38.3195 379.5 39.094 379.5 39.857C379.5 40.62 379.299 41.3685 379.053 41.5205C378.807 41.6725 378.488 42.642 378.344 43.675C378.2 44.708 377.853 46.453 377.574 47.553C377.295 48.653 376.839 50.4455 376.561 51.536C376.208 52.9235 376.22 53.7155 376.6 54.1735C377.429 55.1725 378.846 53.6355 379.16 51.395C379.302 50.382 379.651 48.653 379.936 47.553C380.664 44.742 381.453 41.3375 381.819 39.428C382.085 38.0405 381.987 37.803 381.149 37.803C380.608 37.803 380.016 37.953 379.833 38.1365ZM205.923 44.892C210.151 45.908 212.537 46.9415 213.511 48.181C214.368 49.27 214.397 49.549 213.781 50.7285C212.51 53.1615 208.684 56.1415 203 59.1255C197.946 61.7785 193.89 63.406 193.497 62.938C193.319 62.726 192.866 61.5755 192.491 60.3805C191.522 57.2955 189.08 55.5775 184.5 54.758C183.263 54.5365 180.562 53.8815 178.5 53.302C175.039 52.3295 173.844 52.266 163 52.4815C155.169 52.637 149.582 53.001 146.25 53.5725C140.343 54.5865 119.682 55.185 118.863 54.3665C118.519 54.0225 118.742 53.776 119.553 53.6035C120.211 53.463 122.662 52.9 125 52.3515C130.038 51.17 139.32 49.336 145.25 48.35C146.9 48.0755 149.6 47.6155 151.25 47.328C158.804 46.01 168.528 44.9235 178.25 44.3105C186.356 43.8 202.818 44.1455 205.923 44.892ZM392.181 52.8435C386.776 58.285 385.956 59.459 386.904 60.4065C387.446 60.949 399 49.5855 399 48.51C399 46.65 397.191 47.7995 392.181 52.8435ZM115.648 55.153C115.043 55.27 114.409 55.802 114.24 56.3345C114.071 56.8675 113.767 57.303 113.565 57.303C113.363 57.303 112.802 58.4025 112.319 59.7465C111.543 61.9055 111.176 62.291 109.167 63.058C107.918 63.535 105.4 64.9315 103.573 66.1605C101.745 67.3895 99.643 68.7115 98.901 69.0985C98.159 69.4855 96.974 70.5595 96.268 71.485C95.104 73.0115 94.9735 73.652 94.867 78.3605L94.75 83.553L91.75 83.9165C87.828 84.391 74.577 83.847 70.75 83.0545C65.6615 82 62.5 80.262 62.5 78.5185C62.5 77.3245 65.9055 73.951 69.166 71.9155C72.8835 69.595 79.4745 66.3765 84.25 64.55C86.175 63.8135 88.2 63.015 88.75 62.775C93.049 60.901 113.551 54.8765 115.5 54.9145C116.618 54.9365 116.634 54.9615 115.648 55.153ZM187.654 58.913C189.803 60.443 190.505 62.59 190.307 67.0285C190.161 70.2925 190.266 70.91 191.036 71.322C191.599 71.6235 218.276 71.803 262.517 71.803H333.099L334.575 73.3835C335.674 74.5595 336.013 75.359 335.901 76.5085L335.75 78.053H217H98.25V75.823C98.25 73.834 98.4395 73.464 100 72.403C101.673 71.265 101.993 71.228 107.322 71.554C114.775 72.01 115.031 71.864 114.654 67.363C114.286 62.9815 114.76 60.4975 116.247 59.0105L117.428 57.83L151.811 57.852C185.803 57.874 186.212 57.886 187.654 58.913ZM406 64.2885C404.929 64.897 396.849 67.303 395.875 67.303C395.426 67.303 394.92 67.528 394.75 67.803C394.58 68.078 394.028 68.303 393.524 68.303C392.508 68.303 391.671 69.773 392.641 69.8535C394.306 69.992 396.803 69.67 397.225 69.262C397.486 69.0095 398.316 68.803 399.07 68.803C399.824 68.803 400.58 68.578 400.75 68.303C400.92 68.028 401.552 67.7955 402.155 67.7865C402.757 67.7775 404.487 67.345 406 66.8245C408.007 66.1345 408.793 65.5985 408.91 64.841C409.034 64.0365 408.809 63.8095 407.91 63.8325C407.272 63.8485 406.412 64.0535 406 64.2885ZM113 66.829C113 68.3535 112.997 68.355 110.415 68.204C108.992 68.121 107.75 67.8145 107.654 67.5225C107.448 66.897 110.261 65.461 111.875 65.368C112.81 65.314 113 65.5605 113 66.829ZM334.717 81.2905C335.937 81.7545 336 81.962 336 85.5405C336 88.2175 335.819 89.303 335.375 89.302C335.032 89.3015 281.875 89.304 217.25 89.307C152.625 89.3105 99.3565 89.311 98.875 89.308C98.1205 89.3035 98 88.7905 98 85.578C98 82.5575 98.1655 81.7565 98.875 81.343C100.058 80.654 332.907 80.6025 334.717 81.2905ZM335.033 92.8205C335.982 93.3285 336 94.642 336 163.234V233.129L334.875 234.121C334.257 234.666 333.159 235.363 332.438 235.668C330.555 236.466 105.55 236.482 102.837 235.684C101.703 235.351 100.329 234.4 99.4615 233.349L98 231.575V162.539C98 109.511 98.139 93.364 98.6 92.903C99.399 92.104 333.541 92.0225 335.033 92.8205ZM94.191 114.066C94.836 114.71 94.9585 116.938 94.983 128.473C95.002 137.136 94.8145 142.653 94.4695 143.585C94.1705 144.393 92.329 146.403 90.377 148.053C84.9665 152.627 81.666 155.678 77.534 159.928C73.94 163.624 72.5035 164.551 72.497 163.178C72.4955 162.835 72.26 161.71 71.9735 160.678C71.561 159.192 71.2095 158.803 70.28 158.803C69.635 158.803 68.98 159.135 68.824 159.54C68.5215 160.329 70.221 167.977 71.02 169.421C71.284 169.899 71.5 170.671 71.5 171.136C71.5 173.658 76.003 183.932 78.8345 187.87C79.7505 189.145 80.5065 190.382 80.515 190.62C80.523 190.858 81.3885 192.047 82.4385 193.261C83.772 194.804 84.5955 195.374 85.1735 195.152C86.4635 194.657 86.149 192.628 84.4515 190.497C83.5995 189.428 82.564 187.901 82.1505 187.105C81.453 185.762 81.481 185.507 82.533 183.605C85.477 178.281 92.763 168.803 93.912 168.803C94.1665 168.803 94.513 169.492 94.681 170.334C94.8495 171.176 94.984 185.476 94.98 202.113L94.973 232.361L96.105 233.95C97.5315 235.954 98.386 236.798 100.258 238.053C101.714 239.03 102.701 239.057 141.875 239.193L182 239.332L182.122 246.693C182.296 257.281 182.012 263.48 181.33 263.946C180.221 264.704 124.557 263.984 114.5 263.082C93.6885 261.214 89.5585 260.784 80.25 259.508C76.95 259.056 72.9 258.505 71.25 258.284C64.476 257.373 63.403 257.133 63.147 256.465C62.9105 255.849 63.7205 253.055 65.006 250.053C66.8275 245.798 66.838 244.073 65.0545 241.803C64.5145 241.116 61.492 236.701 58.338 231.993L52.604 223.434L53.344 220.243C53.882 217.924 53.949 216.61 53.5895 215.429C53.043 213.638 52.662 213.948 58.364 211.55C60.6185 210.602 62 208.989 62 207.305C62 206.737 62.3525 206.137 62.7835 205.971C64.2795 205.397 70.1065 209.092 71.278 211.358C72.287 213.309 74.172 213.226 74.404 211.221C74.6945 208.711 69.7345 204.579 63.661 202.269C63.045 202.035 62.0845 200.949 61.527 199.856C60.9695 198.764 60.102 197.573 59.599 197.211C58.248 196.239 57.9745 195.047 58.919 194.245C60.999 192.479 63.1685 191.176 64.7645 190.735C66.116 190.362 66.5 189.997 66.5 189.083C66.5 186.544 62.704 187.132 58.75 190.285C53.978 194.089 54.2275 193.979 51.7765 193.362C50.556 193.055 48.9145 192.803 48.1285 192.803C46.198 192.803 45.5245 192.032 46.0185 190.387C47.0765 186.863 47.5 183.942 47.5 180.166C47.5 176.558 47.373 175.964 46.4795 175.407C45.9185 175.056 45.274 174.884 45.047 175.024C44.8205 175.164 44.494 177.478 44.322 180.166C43.8385 187.716 43.4235 190.792 42.839 191.153C42.544 191.335 39.7555 191.504 36.6415 191.528L30.9795 191.571L29.7395 189.698C29.058 188.668 28.5 187.595 28.5 187.314C28.5 187.033 28.275 186.803 28 186.803C27.725 186.803 27.5 186.574 27.5 186.293C27.5 186.013 26.9255 184.873 26.223 183.761C25.521 182.648 24.5085 180.965 23.973 180.021C23.438 179.076 22.539 177.489 21.9755 176.495C20.4155 173.74 14.61 163.947 12.4345 160.399C11.3705 158.665 10.5 157.076 10.5 156.869C10.5 156.661 10.0715 156.032 9.5475 155.469C9.0235 154.907 7.6925 152.744 6.5905 150.664C4.282 146.307 4.3415 146.14 8.75 144.599C10.125 144.119 11.7 143.535 12.25 143.302C12.8 143.069 15.5 142.054 18.25 141.046C23.704 139.048 24.6265 138.698 26.5 137.915C27.1875 137.627 30 136.568 32.75 135.56C35.5 134.552 38.2 133.537 38.75 133.303C39.3 133.07 42 132.054 44.75 131.046C47.5 130.039 50.2 129.027 50.75 128.798C51.3 128.569 54.5625 127.333 58 126.051C61.4375 124.769 65.441 123.258 66.8965 122.694L69.543 121.67L70.8925 122.861C71.6345 123.517 72.356 124.167 72.4955 124.306C72.6355 124.445 73.65 125.22 74.75 126.029C75.85 126.837 76.9285 127.789 77.1465 128.145C77.754 129.135 79.338 129.834 80.214 129.498C80.8815 129.242 81 128.041 81 121.541C81 115.885 81.163 113.821 81.625 113.634C81.969 113.496 84.765 113.364 87.8395 113.343C92.221 113.312 93.5935 113.468 94.191 114.066ZM351.174 119.131C351.354 122.061 351.5 125.549 351.5 126.881C351.5 129.285 351.734 129.569 353.5 129.313C353.912 129.253 355.255 128.214 356.484 127.004C357.713 125.793 358.906 124.803 359.136 124.803C359.366 124.803 360.274 124.129 361.152 123.306C362.031 122.482 363.072 121.807 363.466 121.806C364.155 121.803 369.174 123.409 371.25 124.296C371.8 124.531 373.938 125.322 376 126.053C378.062 126.785 380.2 127.568 380.75 127.793C381.3 128.018 382.425 128.432 383.25 128.713C385.372 129.436 394.551 132.81 395.75 133.308C396.3 133.536 398.438 134.322 400.5 135.053C402.562 135.785 404.7 136.568 405.25 136.793C405.8 137.018 406.925 137.432 407.75 137.713C410.01 138.483 419.109 141.833 420.25 142.315C420.8 142.548 423.05 143.348 425.25 144.093C430.221 145.777 431 146.17 431 146.995C431 147.356 430.156 149.134 429.125 150.946C427.342 154.079 426.209 155.916 419.419 166.682C417.814 169.228 416.5 171.419 416.5 171.552C416.5 171.685 415.487 173.373 414.25 175.303C413.013 177.234 412 178.926 412 179.063C412 179.2 410.763 181.231 409.25 183.575C407.737 185.92 406.5 187.964 406.5 188.118C406.5 188.273 406.035 189.052 405.466 189.851C404.608 191.056 404.076 191.304 402.341 191.307C401.191 191.309 398.821 191.543 397.074 191.826C393.355 192.43 392.771 192.135 392.317 189.421C392.145 188.394 391.77 186.428 391.484 185.053C391.198 183.678 390.849 181.316 390.707 179.803C390.322 175.715 390.057 174.803 389.252 174.803C388.851 174.803 388.169 175.343 387.737 176.002C386.867 177.331 387.039 179.957 388.379 185.803C388.788 187.591 389.152 189.821 389.186 190.758C389.249 192.457 389.235 192.468 385.509 193.611C383.452 194.242 380.634 195.351 379.247 196.077C376.517 197.505 376.884 197.518 368.5 195.715C364.136 194.776 361.899 194.659 361.474 195.346C360.935 196.218 361.827 197.803 362.857 197.803C363.309 197.803 364.37 198.016 365.215 198.276C366.059 198.536 368.493 199.125 370.625 199.584C372.757 200.044 374.505 200.675 374.51 200.987C374.516 201.298 374.611 203.198 374.723 205.208C374.894 208.287 374.794 208.912 374.088 209.176C373.627 209.348 371.368 210.596 369.068 211.95C362.386 215.88 359.507 218.963 360.271 221.369C360.728 222.81 362.907 222.599 363.289 221.077C363.735 219.299 369.076 215.453 376.1 211.853C377.508 211.131 378.075 211.246 382.331 213.114C383.823 213.769 383.88 213.891 383.349 215.296C382.927 216.415 382.939 217.349 383.394 219.051C384.259 222.286 384.192 222.666 382.293 225.31C378.71 230.297 369.5 244.864 369.5 245.544C369.5 245.936 369.753 246.886 370.062 247.655C371.253 250.617 371.448 251.123 372.272 253.409C372.739 254.705 373 256.08 372.853 256.465C372.705 256.849 371.61 257.295 370.418 257.455C369.226 257.615 365.888 258.106 363 258.546C356.498 259.538 351.613 260.175 345.625 260.811C343.082 261.082 338.806 261.54 336.125 261.83C329.887 262.504 320.932 263.185 310.5 263.778C300.611 264.341 255.5 264.447 254.655 263.91C253.961 263.469 253.691 257.509 253.875 246.678L254 239.303H293.152H332.303L334.848 238.035C336.973 236.976 337.566 236.364 338.446 234.318C339.48 231.914 339.5 231.283 339.5 201.147C339.5 175.734 339.618 170.327 340.185 169.857C340.729 169.405 341.494 169.953 343.888 172.513C347.674 176.56 353.994 186.124 353.997 187.812C354 188.974 352.201 192.147 350.65 193.717C349.235 195.149 348.969 196.201 349.809 197.041C350.929 198.161 351.428 197.879 354 194.679C357.601 190.198 363.145 178.645 364.498 172.803C364.721 171.841 365.282 169.703 365.745 168.053C368.25 159.124 368.267 158.645 366.061 158.901C364.894 159.037 364.666 159.405 363.984 162.267C363.563 164.034 362.974 165.562 362.675 165.662C362.376 165.761 359.345 163.067 355.94 159.675C352.536 156.282 348.4 152.404 346.75 151.056C345.1 149.708 342.793 147.66 341.625 146.504L339.5 144.404L339.426 134.228C339.341 122.701 339.504 114.731 339.835 114.178C339.958 113.972 342.486 113.803 345.453 113.803H350.848L351.174 119.131ZM253.625 149.551C253.282 149.942 253.001 151.452 253.003 152.907C253.006 155.302 253.144 155.632 254.455 156.377C255.816 157.152 255.996 157.145 257.452 156.26C258.857 155.405 259 155.082 259 152.775C259 151.238 258.717 149.949 258.285 149.518C257.372 148.604 254.44 148.625 253.625 149.551ZM95 156.494V163.685L93.2385 165.028C91.0855 166.67 89.5685 168.183 88.25 170.004C87.7 170.763 86.8725 171.832 86.4105 172.379C85.949 172.926 84.602 174.877 83.4165 176.714C79.5895 182.646 79.174 182.651 76.875 176.803C76.6045 176.116 76.1845 175.163 75.9415 174.685C75.6985 174.208 75.5 173.265 75.5 172.59C75.5 171.915 75.275 171.223 75 171.053C74.0655 170.476 74.4955 168.24 75.944 166.143C77.329 164.139 84.0935 157.45 90.3055 151.943C94.898 147.871 95 147.969 95 156.494ZM342.25 151.086C348.081 156.069 350.31 158.118 354.555 162.393C360.156 168.034 361.657 170.538 360.881 172.95C360.598 173.832 360.171 174.944 359.933 175.421C359.695 175.899 359.5 176.633 359.5 177.053C359.5 177.473 359.3 178.208 359.056 178.685C358.811 179.163 358.192 180.416 357.681 181.47C357.169 182.524 356.593 183.486 356.401 183.608C355.999 183.864 352 178.609 352 177.825C352 177.538 351.775 177.303 351.5 177.303C351.225 177.303 351 176.966 351 176.553C351 176.141 350.831 175.802 350.625 175.8C350.419 175.798 349.688 174.966 349 173.95C347.131 171.189 342.967 167.041 341.125 166.104C339.329 165.191 339.39 165.451 339.192 157.803C339.045 152.16 339.327 149.803 340.147 149.804C340.479 149.804 341.425 150.381 342.25 151.086ZM172.5 153.262C172.5 156.056 180.894 157.515 184.048 155.269C185.685 154.104 186.016 152.303 184.594 152.303C184.095 152.303 182.735 152.764 181.57 153.327C179.703 154.229 179.231 154.276 177.6 153.725C176.582 153.381 175.536 152.92 175.275 152.701C174.315 151.897 172.5 152.264 172.5 153.262ZM190 177.803C188.173 179.63 188 180.031 188.003 182.428C188.005 184.686 188.268 185.399 189.878 187.525C191.988 190.31 196.798 194.252 198.125 194.283C198.606 194.294 199 194.503 199 194.747C199 194.99 199.619 195.314 200.375 195.466C201.131 195.618 202.763 195.999 204 196.312C207.552 197.213 213.425 197.484 215.557 196.845C218.244 196.04 220 193.609 220 190.694C220 186.421 216.089 183.806 209.692 183.801C206.406 183.799 204.558 182.821 200.481 178.928C199.257 177.76 197.861 176.803 197.378 176.803C196.895 176.803 196.5 176.578 196.5 176.303C196.5 176.028 195.487 175.803 194.25 175.803C192.291 175.803 191.74 176.063 190 177.803ZM195.766 179.028C196.719 179.426 198.216 180.422 199.092 181.24C200.967 182.993 200.841 183.258 196.785 186.051C194.437 187.669 193.998 187.81 193.09 187.244C191.607 186.317 190.331 183.211 190.715 181.463C190.891 180.659 191.637 179.64 192.391 179.172C194.046 178.146 193.693 178.161 195.766 179.028ZM205.768 186.111C206.861 186.827 207 187.273 207 190.057C207 194.343 205.835 194.787 200.579 192.508C196.219 190.617 196.247 189.621 200.75 186.406C202.555 185.117 204.112 185.026 205.768 186.111ZM215.5 187.734C216.461 188.441 216.785 189.183 216.901 190.943C217.045 193.118 216.966 193.273 215.326 194.051C214.366 194.506 212.746 194.799 211.675 194.711L209.75 194.553L209.885 190.827C209.966 188.572 210.263 186.938 210.635 186.688C211.504 186.106 214.023 186.648 215.5 187.734ZM45.75 195.251C52.1045 196.058 56.2525 197.81 58.4635 200.62C59.8445 202.376 59.8815 206.183 58.534 207.896C57.1775 209.621 53.939 210.526 51.73 209.797C50.7895 209.486 49.79 209.374 49.51 209.547C48.716 210.038 48.9095 212.452 49.8505 213.795C51.0485 215.505 50.8845 219.813 49.539 221.99C48.2955 224.003 45.4045 226.011 42.999 226.533C39.9025 227.206 31.9125 227.416 31.336 226.839C31.041 226.544 30.387 226.303 29.8825 226.303C29.3775 226.303 28.354 225.926 27.6075 225.464C25.3955 224.097 20.5 218.895 20.5 217.912C20.5 217.412 20.2445 216.748 19.932 216.435C19.5865 216.09 19.3635 213.984 19.3635 211.065C19.3635 207.049 19.55 205.9 20.502 204.049C22.7595 199.66 28.0885 195.303 31.2005 195.303C31.883 195.303 32.596 195.053 32.785 194.746C33.1465 194.161 38.948 194.387 45.75 195.251ZM404.25 194.803C404.42 195.078 405.145 195.303 405.861 195.303C407.576 195.303 411.312 197.512 413.506 199.824C415.115 201.519 415.562 202.237 417.176 205.723C417.474 206.367 417.692 208.842 417.661 211.223C417.615 214.765 417.377 216.008 416.357 218.053C414.559 221.656 409.314 226.303 407.047 226.303C406.503 226.303 405.92 226.528 405.75 226.803C405.578 227.082 403.254 227.303 400.5 227.303C397.746 227.303 395.422 227.082 395.25 226.803C395.08 226.528 394.496 226.303 393.951 226.303C392.388 226.303 389.179 224.459 388.099 222.94C386.351 220.482 385.745 217.589 386.5 215.302C386.863 214.203 387.349 213.303 387.58 213.303C388.181 213.303 388.1 209.924 387.49 209.547C387.21 209.374 386.169 209.5 385.177 209.827C383.761 210.294 382.961 210.285 381.444 209.785C378.514 208.818 377.786 207.722 377.767 204.244C377.75 201.374 377.83 201.183 379.724 199.546C380.809 198.607 382.325 197.701 383.093 197.533C383.86 197.364 384.617 197.019 384.774 196.765C384.93 196.511 385.82 196.303 386.75 196.303C387.68 196.303 388.58 196.078 388.75 195.803C388.92 195.528 390.452 195.287 392.155 195.268C393.857 195.249 395.7 195.04 396.25 194.803C397.656 194.199 403.877 194.199 404.25 194.803ZM194.874 239.215C195.358 239.522 195.511 244.749 195.548 262.333C195.574 274.829 195.445 285.643 195.26 286.364C194.675 288.645 193.583 288.842 182.304 288.692C173.131 288.57 171.793 288.45 171.325 287.708C170.919 287.063 171.002 286.629 171.676 285.885C172.667 284.79 174.065 284.425 179.5 283.841C185.641 283.181 185 285.782 185 261.541C185 249.905 185.136 240.029 185.303 239.594C185.548 238.956 186.444 238.805 189.928 238.811C192.305 238.815 194.531 238.997 194.874 239.215ZM250.4 239.403C250.848 239.851 251 245.403 251 261.303C251 277.203 251.152 282.755 251.6 283.203C251.93 283.533 253.495 283.803 255.077 283.803C256.659 283.803 258.47 284.013 259.102 284.269C259.733 284.525 260.812 284.854 261.5 285C263.159 285.353 264.279 287.114 263.467 288.092C262.991 288.666 260.82 288.803 252.202 288.803H241.526L240.763 287.328C240.112 286.069 240 282.499 240 262.928C240 245.764 240.151 239.852 240.6 239.403C240.974 239.03 242.822 238.803 245.5 238.803C248.178 238.803 250.026 239.03 250.4 239.403ZM237.098 248.678C237.236 253.835 237.214 259.403 237.049 261.053L236.75 264.053L231.174 264.194L225.598 264.335L223.229 262.285C221.926 261.157 220.33 259.887 219.684 259.464C218.429 258.641 216.542 258.851 215.41 259.939C215.047 260.288 213.584 261.421 212.158 262.456L209.568 264.339L204.408 264.196L199.25 264.053L198.958 261.053C198.798 259.403 198.775 253.835 198.908 248.678L199.148 239.303H217.997H236.847L237.098 248.678Z"/>
</svg>
