<svg width="13" height="13" viewBox="0 0 13 13" fill="none"
    xmlns="http://www.w3.org/2000/svg">
    <path d="M0.947028 5.61933L5.61934 5.61933L5.61933 0.947031C5.61753 0.707783 5.74418 0.485941 5.95113 0.365871C6.15808 0.245807 6.41357 0.245977 6.62037 0.366292C6.82718 0.486601 6.95353 0.708544 6.95145 0.947798L6.95069 5.61933L11.623 5.61935C11.8622 5.61722 12.0842 5.7436 12.2045 5.95039C12.3248 6.15724 12.325 6.41268 12.2049 6.61962C12.0849 6.82663 11.863 6.95323 11.6238 6.95147L6.95071 6.9507L6.95071 11.623C6.95247 11.8622 6.82582 12.084 6.61891 12.2041C6.41193 12.3242 6.15643 12.324 5.94964 12.2037C5.74285 12.0834 5.61645 11.8614 5.61846 11.6221L5.61933 6.95069L0.947016 6.95069C0.5813 6.94789 0.286182 6.65076 0.285968 6.28499C0.285761 5.91922 0.580502 5.62175 0.946262 5.61856L0.947028 5.61933Z" fill="white"/>
</svg>
