<svg width="14" height="14" viewBox="0 0 14 14" fill="none" xmlns="http://www.w3.org/2000/svg">
<path d="M12.9109 6.57022V0.809683C12.9109 0.638633 12.7719 0.500261 12.5999 0.500261C12.428 0.500261 12.2889 0.638633 12.2889 0.809683V6.57022C11.6664 6.71114 11.1999 7.26593 11.1999 7.92838C11.1999 8.59011 11.6653 9.14564 12.2889 9.2868V13.1903C12.2889 13.3611 12.428 13.4997 12.5999 13.4997C12.7719 13.4997 12.9109 13.3611 12.9109 13.1903V9.28661C13.5335 9.14594 14 8.59116 14 7.92845C14 7.26698 13.5345 6.71145 12.9109 6.57028V6.57022ZM7.31114 1.92766V0.809749C7.31114 0.638699 7.1718 0.500327 6.99987 0.500327C6.8282 0.500327 6.68885 0.638699 6.68885 0.809749V1.92766C6.06631 2.06858 5.60006 2.62311 5.60006 3.28582C5.60006 3.94729 6.0653 4.50308 6.68885 4.64398V13.1906C6.68885 13.3614 6.8282 13.5 6.99987 13.5C7.1718 13.5 7.31114 13.3614 7.31114 13.1906V4.64398C7.93369 4.50306 8.39994 3.94853 8.39994 3.28582C8.39994 2.62435 7.93445 2.06857 7.31114 1.92766ZM1.71108 9.35602V0.809421C1.71108 0.638372 1.57174 0.5 1.40007 0.5C1.22814 0.5 1.08879 0.638372 1.08879 0.809421V9.35602C0.466247 9.49694 0 10.0515 0 10.7142C0 11.3756 0.465492 11.9312 1.08879 12.0723V13.1903C1.08879 13.361 1.22814 13.4997 1.40007 13.4997C1.57174 13.4997 1.71108 13.361 1.71108 13.1903V12.0723C2.33363 11.9314 2.79988 11.3766 2.79988 10.7142C2.79988 10.0527 2.33464 9.49692 1.71108 9.35602Z" fill="#D00737"/>
</svg>
