<svg width="20" height="20" viewBox="0 0 20 20" fill="none" xmlns="http://www.w3.org/2000/svg">
<path fill-rule="evenodd" clip-rule="evenodd" d="M10 1C5.02944 1 1 5.02944 1 10C1 14.9706 5.02944 19 10 19C14.9706 19 19 14.9706 19 10C19 5.02944 14.9706 1 10 1ZM0 10C0 4.47715 4.47715 0 10 0C15.5228 0 20 4.47715 20 10C20 15.5228 15.5228 20 10 20C4.47715 20 0 15.5228 0 10ZM10 3C10.2761 3 10.5 3.22386 10.5 3.5V5C11.9872 5 13.2217 6.08221 13.4589 7.50209C13.5044 7.77446 13.2761 8 13 8C12.7239 8 12.5064 7.77267 12.4383 7.50506C12.218 6.63988 11.4337 6 10.5 6V9.50223C11.0954 9.51154 11.7379 9.55858 12.2656 9.79309C12.6273 9.95386 12.9492 10.2064 13.1741 10.5918C13.3951 10.9708 13.5 11.4398 13.5 12C13.5 13.6569 12.1569 15 10.5 15V16.5C10.5 16.7761 10.2761 17 10 17C9.72386 17 9.5 16.7761 9.5 16.5V15C8.01277 15 6.7783 13.9178 6.54113 12.4979C6.49563 12.2255 6.72386 12 7 12C7.27614 12 7.49359 12.2273 7.56171 12.4949C7.78197 13.3601 8.56626 14 9.5 14V10.4978C8.90462 10.4885 8.26209 10.4414 7.73443 10.2069C7.37271 10.0461 7.05077 9.79364 6.82592 9.40819C6.60486 9.02922 6.5 8.56017 6.5 8C6.5 6.34315 7.84315 5 9.5 5V3.5C9.5 3.22386 9.72386 3 10 3ZM9.5 9.49668V6C8.39543 6 7.5 6.89543 7.5 8C7.5 8.43983 7.58264 8.72078 7.6897 8.90431C7.79298 9.08136 7.93979 9.20386 8.14057 9.29309C8.48669 9.44693 8.94427 9.48663 9.5 9.49668ZM10.5 10.5033V14C11.6046 14 12.5 13.1046 12.5 12C12.5 11.5602 12.4174 11.2792 12.3103 11.0957C12.207 10.9186 12.0602 10.7961 11.8594 10.7069C11.5133 10.5531 11.0557 10.5134 10.5 10.5033Z" fill="#333333"/>
</svg>
