<svg width="16" height="11" viewBox="0 0 16 11" fill="none" xmlns="http://www.w3.org/2000/svg">
<path d="M15.3044 0.000146812H0.695574C0.311413 0.000146812 0 0.311578 0 0.695721V9.73917C0 10.1233 0.311431 10.4347 0.695574 10.4347H15.3044C15.6886 10.4347 16 10.1233 16 9.73917V0.695721C16 0.31156 15.6886 0 15.3044 0V0.000146812ZM15.3044 9.56544C15.3044 9.6614 15.2265 9.7393 15.1306 9.7393H0.86948C0.773512 9.7393 0.695618 9.6614 0.695618 9.56544V0.869752C0.695618 0.773783 0.773512 0.69589 0.86948 0.69589H15.1306C15.2265 0.69589 15.3044 0.773783 15.3044 0.869752V9.56544Z" fill="#333333"/>
<path d="M7.99972 2.26074C6.3694 2.26074 5.04321 3.58707 5.04321 5.21725C5.04321 6.84758 6.36954 8.17376 7.99972 8.17376C9.63005 8.17376 10.9562 6.84743 10.9562 5.21725C10.9564 3.58707 9.63005 2.26074 7.99972 2.26074ZM7.99972 7.47801C6.75315 7.47801 5.73882 6.46367 5.73882 5.21711C5.73882 3.97054 6.75315 2.95621 7.99972 2.95621C9.24629 2.95621 10.2606 3.97054 10.2606 5.21711C10.2606 6.46382 9.24644 7.47801 7.99972 7.47801Z" fill="#333333"/>
<path d="M4.17352 1.39111H1.73874C1.5468 1.39111 1.39087 1.5469 1.39087 1.73898C1.39087 1.93092 1.54666 2.08685 1.73874 2.08685H4.17352C4.36546 2.08685 4.52139 1.93106 4.52139 1.73898C4.52139 1.54704 4.3656 1.39111 4.17352 1.39111Z" fill="#333333"/>
<path d="M14.2608 8.34814H11.8259C11.634 8.34814 11.478 8.50393 11.478 8.69601C11.478 8.88795 11.6338 9.04388 11.8259 9.04388H14.2607C14.4526 9.04388 14.6085 8.88809 14.6085 8.69601C14.6085 8.50393 14.4528 8.34814 14.2608 8.34814H14.2608Z" fill="#333333"/>
</svg>
