<svg width="16" height="11" viewBox="0 0 16 11" fill="none" xmlns="http://www.w3.org/2000/svg">
<path d="M15.3044 0H0.695574C0.311413 0 0 0.311431 0 0.695574V9.73903C0 10.1232 0.311431 10.4346 0.695574 10.4346H15.3044C15.6886 10.4346 16 10.1232 16 9.73903V0.695574C16 0.311413 15.6886 0 15.3044 0Z" fill="#D00737"/>
<path d="M7.99972 2.26074C6.3694 2.26074 5.04321 3.58707 5.04321 5.21725C5.04321 6.84758 6.36954 8.17376 7.99972 8.17376C9.63005 8.17376 10.9562 6.84743 10.9562 5.21725C10.9564 3.58707 9.63005 2.26074 7.99972 2.26074Z" fill="white"/>
<path d="M4.17352 1.39111H1.73874C1.5468 1.39111 1.39087 1.5469 1.39087 1.73898C1.39087 1.93092 1.54666 2.08685 1.73874 2.08685H4.17352C4.36546 2.08685 4.52139 1.93106 4.52139 1.73898C4.52139 1.54704 4.3656 1.39111 4.17352 1.39111Z" fill="white"/>
<path d="M14.2608 8.34814H11.8259C11.634 8.34814 11.478 8.50393 11.478 8.69601C11.478 8.88795 11.6338 9.04388 11.8259 9.04388H14.2607C14.4526 9.04388 14.6085 8.88809 14.6085 8.69601C14.6085 8.50393 14.4528 8.34814 14.2608 8.34814H14.2608Z" fill="white"/>
</svg>
