<svg width="16" height="16" viewBox="0 0 16 16" fill="none"
    xmlns="http://www.w3.org/2000/svg">
    <rect opacity="0.01" width="16" height="16" fill="white"/>
    <path fill-rule="evenodd" clip-rule="evenodd" d="M1.5 6.45653C1.5 2.88871 4.41442 0 7.97717 0C11.5665 0 14.5 2.92757 14.5 6.51904C14.5 7.90789 14.065 9.28138 13.2036 10.3877C11.6583 12.3721 10.3704 13.7475 8.28001 15.7367L8.00336 16L7.72356 15.7401C5.50455 13.6789 4.30962 12.2666 2.86297 10.4239C1.97445 9.29218 1.5 7.8922 1.5 6.45653ZM7.97717 0.812753C4.85919 0.812753 2.3125 3.34153 2.3125 6.45653C2.3125 7.71354 2.72793 8.93601 3.50197 9.92197C4.8681 11.6621 5.99455 12.9988 7.99703 14.8833C9.90434 13.0551 11.117 11.7447 12.5626 9.88824C13.3047 8.93511 13.6875 7.74063 13.6875 6.51904C13.6875 3.37744 11.1188 0.812753 7.97717 0.812753ZM5.5625 6.50203C5.5625 5.15541 6.65381 4.06377 8 4.06377C9.34619 4.06377 10.4375 5.15541 10.4375 6.50203C10.4375 7.84864 9.34619 8.94028 8 8.94028C6.65381 8.94028 5.5625 7.84864 5.5625 6.50203ZM8 4.87652C7.10254 4.87652 6.375 5.60428 6.375 6.50203C6.375 7.39977 7.10254 8.12753 8 8.12753C8.89746 8.12753 9.625 7.39977 9.625 6.50203C9.625 5.60428 8.89746 4.87652 8 4.87652Z" fill="white"/>
</svg>
