<svg width="16" height="16" viewBox="0 0 16 16" fill="none"
    xmlns="http://www.w3.org/2000/svg">
    <rect opacity="0.01" width="16" height="16" fill="white"/>
    <path fill-rule="evenodd" clip-rule="evenodd" d="M6.03974 0.0646045C6.15059 0.138387 6.21748 0.264598 6.21748 0.400001V4C6.21748 4.22091 6.39234 4.4 6.60804 4.4H9.34193C9.55763 4.4 9.73249 4.2209 9.73248 3.99998L9.73231 0.400021C9.7323 0.264616 9.79918 0.1384 9.91004 0.0646119C10.0209 -0.00917606 10.1607 -0.0205174 10.2815 0.0344731C13.9681 1.71249 14.0707 6.58698 11.1055 8.86866C10.973 8.97057 10.904 9.11175 10.904 9.24341V15.6C10.904 15.8209 10.7291 16 10.5134 16C10.2977 16 10.1229 15.8209 10.1229 15.6V9.24341C10.1229 8.8234 10.338 8.45854 10.6363 8.22907C13.0318 6.38576 13.0389 2.67298 10.5135 1.06301L10.5136 3.99994C10.5136 4.66271 9.98905 5.2 9.34193 5.2H6.60804C5.96094 5.2 5.43636 4.66274 5.43636 4V1.05813C4.23282 1.80366 3.6285 2.94738 3.58386 4.15472C3.53248 5.54412 4.22189 7.07739 5.72027 8.23273C6.01678 8.46135 6.21727 8.82255 6.21727 9.22813V15.6C6.21727 15.8209 6.04241 16 5.82671 16C5.61102 16 5.43616 15.8209 5.43616 15.6V9.22813C5.43616 9.09877 5.37124 8.96498 5.25046 8.87185C3.57931 7.58329 2.74084 5.81363 2.8033 4.12445C2.86615 2.42471 3.84075 0.866351 5.6683 0.0344762C5.78911 -0.0205158 5.92889 -0.00917844 6.03974 0.0646045ZM8.17007 10C8.38577 10 8.56063 10.1791 8.56063 10.4V15.6C8.56063 15.8209 8.38577 16 8.17007 16C7.95437 16 7.77951 15.8209 7.77951 15.6V10.4C7.77951 10.1791 7.95437 10 8.17007 10Z" fill="white"/>
</svg>
