<svg width="20" height="14" viewBox="0 0 20 14" fill="none" xmlns="http://www.w3.org/2000/svg">
<path fill-rule="evenodd" clip-rule="evenodd" d="M5.38452 7.00061C5.38452 6.71739 5.61412 6.48779 5.89734 6.48779H14.1025C14.3857 6.48779 14.6153 6.71739 14.6153 7.00061C14.6153 7.28384 14.3857 7.51343 14.1025 7.51343H5.89734C5.61412 7.51343 5.38452 7.28384 5.38452 7.00061Z" fill="#D00737"/>
<path d="M5.89737 13.6668H4.82045C3.71588 13.6668 2.82045 12.7714 2.82045 11.6668V10.5899H1.25635C0.704063 10.5899 0.256348 10.1422 0.256348 9.58991V4.41042C0.256348 3.85813 0.704063 3.41042 1.25635 3.41042H2.82045V2.3335C2.82045 1.22893 3.71588 0.333496 4.82045 0.333496H5.89737V7.00016H14.1025V0.333496H15.1794C16.284 0.333496 17.1794 1.22893 17.1794 2.3335V3.41042H18.7435C19.2958 3.41042 19.7435 3.85813 19.7435 4.41042V9.58991C19.7435 10.1422 19.2958 10.5899 18.7435 10.5899H17.1794V11.6668C17.1794 12.7714 16.284 13.6668 15.1794 13.6668H14.1025V7.00016H5.89737V13.6668Z" fill="#D00737"/>
<path fill-rule="evenodd" clip-rule="evenodd" d="M2.5641 2.38484C2.5641 1.11034 3.59729 0.0771484 4.8718 0.0771484H5.89744C6.03905 0.0771484 6.15385 0.191947 6.15385 0.333559V6.74382V7.25664H13.8462V6.74382V0.333559C13.8462 0.191947 13.961 0.0771484 14.1026 0.0771484H15.1282C16.4027 0.0771484 17.4359 1.11034 17.4359 2.38484V3.15407H18.7179C19.426 3.15407 20 3.72807 20 4.43612V9.56433C20 10.2724 19.426 10.8464 18.7179 10.8464H17.4359V11.6156C17.4359 12.8901 16.4027 13.9233 15.1282 13.9233H14.1026C13.961 13.9233 13.8462 13.8085 13.8462 13.6669V7.25664H6.15385V13.6669C6.15385 13.8085 6.03905 13.9233 5.89744 13.9233H4.8718C3.59729 13.9233 2.5641 12.8901 2.5641 11.6156V10.8464H1.28205C0.573994 10.8464 0 10.2724 0 9.56433V4.43612C0 3.72807 0.573994 3.15407 1.28205 3.15407H2.5641V2.38484ZM2.5641 3.66689H1.28205C0.857217 3.66689 0.512821 4.01129 0.512821 4.43612V9.56433C0.512821 9.98916 0.857217 10.3336 1.28205 10.3336H2.5641V3.66689ZM17.4359 10.3336H18.7179C19.1428 10.3336 19.4872 9.98916 19.4872 9.56433V4.43612C19.4872 4.01129 19.1428 3.66689 18.7179 3.66689H17.4359V10.3336ZM4.8718 0.589969C3.88051 0.589969 3.07692 1.39356 3.07692 2.38484V11.6156C3.07692 12.6069 3.88051 13.4105 4.8718 13.4105H5.64103V0.589969H4.8718ZM14.359 0.589969V13.4105H15.1282C16.1195 13.4105 16.9231 12.6069 16.9231 11.6156V2.38484C16.9231 1.39356 16.1195 0.589969 15.1282 0.589969H14.359Z" fill="white"/>
</svg>
