<svg width="20" height="20" viewBox="0 0 20 20" fill="none" xmlns="http://www.w3.org/2000/svg">
<path d="M17.5 19H2.5C1.39543 19 0.5 18.1046 0.5 17V13.5V10.0687H19.5V13.5V17C19.5 18.1046 18.6046 19 17.5 19Z" fill="#D00737"/>
<path d="M15.5 3H17.5C18.6046 3 19.5 3.89543 19.5 5V8H0.5V5C0.5 3.89543 1.39543 3 2.5 3H4.5H10H15.5Z" fill="#D00737"/>
<path fill-rule="evenodd" clip-rule="evenodd" d="M4.5 0.5C4.77614 0.5 5 0.723858 5 1V2.5H9.5V1C9.5 0.723858 9.72386 0.5 10 0.5C10.2761 0.5 10.5 0.723858 10.5 1V2.5H15V1C15 0.723858 15.2239 0.5 15.5 0.5C15.7761 0.5 16 0.723858 16 1V2.5H17.5C18.8807 2.5 20 3.61929 20 5V8C20 8.27614 19.7761 8.5 19.5 8.5H0.5C0.223858 8.5 0 8.27614 0 8V5C0 3.61929 1.11929 2.5 2.5 2.5H4V1C4 0.723858 4.22386 0.5 4.5 0.5ZM4 3.5H2.5C1.67157 3.5 1 4.17157 1 5V7.5H19V5C19 4.17157 18.3284 3.5 17.5 3.5H16V5C16 5.27614 15.7761 5.5 15.5 5.5C15.2239 5.5 15 5.27614 15 5V3.5H10.5V5C10.5 5.27614 10.2761 5.5 10 5.5C9.72386 5.5 9.5 5.27614 9.5 5V3.5H5V5C5 5.27614 4.77614 5.5 4.5 5.5C4.22386 5.5 4 5.27614 4 5V3.5ZM0 10.0687C0 9.79252 0.223858 9.56866 0.5 9.56866H19.5C19.7761 9.56866 20 9.79252 20 10.0687V17C20 18.3807 18.8807 19.5 17.5 19.5H2.5C1.11929 19.5 0 18.3807 0 17V10.0687ZM1 10.5687V17C1 17.8284 1.67157 18.5 2.5 18.5H17.5C18.3284 18.5 19 17.8284 19 17V10.5687H1Z" fill="#D00737"/>
<path d="M5.15 1C5.15 0.641015 4.85899 0.35 4.5 0.35C4.14101 0.35 3.85 0.641015 3.85 1V2.5V3.5V5C3.85 5.35899 4.14101 5.65 4.5 5.65C4.85899 5.65 5.15 5.35899 5.15 5V3.5V2.5V1ZM9.35 1V2.5V3.5V5C9.35 5.35899 9.64102 5.65 10 5.65C10.359 5.65 10.65 5.35899 10.65 5V3.5V2.5V1C10.65 0.641015 10.359 0.35 10 0.35C9.64102 0.35 9.35 0.641015 9.35 1ZM14.85 1V2.5V3.5V5C14.85 5.35899 15.141 5.65 15.5 5.65C15.859 5.65 16.15 5.35899 16.15 5V3.5V2.5V1C16.15 0.641015 15.859 0.35 15.5 0.35C15.141 0.35 14.85 0.641015 14.85 1Z" stroke="white" stroke-width="0.3" stroke-linecap="round" stroke-linejoin="round"/>
</svg>
