<svg width="16" height="16" viewBox="0 0 16 16" fill="none" xmlns="http://www.w3.org/2000/svg">
<path d="M3.46013 0C3.13417 0 2.87003 0.264142 2.87003 0.590097V1.48311H2.36056C1.73445 1.48311 1.13413 1.73184 0.691486 2.17448C0.248715 2.61708 0 3.21756 0 3.84355V13.0574C0 13.6833 0.248728 14.2838 0.691486 14.7265C1.13409 15.1691 1.73441 15.4178 2.36056 15.4178H13.6396C14.2655 15.4178 14.866 15.1691 15.3086 14.7265C15.7514 14.2839 16 13.6834 16 13.0574V3.84355C16 3.2176 15.7514 2.61712 15.3086 2.17448C14.866 1.73187 14.2656 1.48311 13.6396 1.48311H13.1301V0.590097C13.1301 0.264138 12.866 0 12.54 0C12.214 0 11.9499 0.264142 11.9499 0.590097V1.48311H8.59003V0.590097C8.59003 0.264138 8.32589 0 7.99994 0C7.67414 0 7.40984 0.264142 7.40984 0.590097V1.48311H4.05014V0.590097C4.05014 0.264138 3.786 0 3.46005 0H3.46013ZM14.8197 13.0572C14.8197 13.3701 14.6954 13.6703 14.4741 13.8916C14.2527 14.1129 13.9525 14.2374 13.6395 14.2374H2.3605C2.04752 14.2374 1.74719 14.1129 1.52588 13.8916C1.30458 13.6703 1.18029 13.3701 1.18029 13.0572V6.61705H14.8198L14.8197 13.0572ZM7.40976 2.66327V3.55628C7.40976 3.88224 7.67406 4.14638 7.99986 4.14638C8.32581 4.14638 8.58995 3.88224 8.58995 3.55628V2.66327H11.9498V3.55628C11.9498 3.88224 12.214 4.14638 12.5399 4.14638C12.8659 4.14638 13.13 3.88224 13.13 3.55628V2.66327H13.6395C13.9525 2.66327 14.2526 2.78771 14.4741 3.00902C14.6954 3.23032 14.8197 3.5305 14.8197 3.84347V5.43674L1.18021 5.4369V3.84347C1.18021 3.53049 1.30449 3.23032 1.5258 3.00901C1.7471 2.78771 2.04744 2.66326 2.36041 2.66326H2.86989V3.55628C2.86989 3.88224 3.13403 4.14638 3.45999 4.14638C3.78595 4.14638 4.05009 3.88224 4.05009 3.55628V2.66326L7.40976 2.66327Z" fill="#333333"/>
</svg>
