<svg width="328" height="309" viewBox="0 0 328 309"
    xmlns="http://www.w3.org/2000/svg">
    <path fill-rule="evenodd" clip-rule="evenodd" d="M152.618 0.195653C117.978 2.58105 85.7635 14.8121 58.8984 35.7786C53.8894 39.6879 42.1359 50.76 38.0899 55.3813C8.57481 89.0917 -4.45693 131.276 1.35203 174.304C4.95656 201.004 16.6612 227.647 34.0194 248.664C40.1477 256.083 48.5718 264.564 55.5512 270.341C99.9875 307.115 161.245 318.622 217.051 300.677C247.005 291.045 273.946 272.934 293.398 249.353C309.151 230.256 319.818 208.304 324.809 184.714C334.838 137.306 320.958 88.6838 286.988 52.2268C283.228 48.192 274.041 39.6753 269.935 36.4186C244.406 16.1689 214.215 4.06112 180.734 0.646109C174.913 0.0521252 158.515 -0.210326 152.618 0.195653ZM168.518 128.248L139.565 155.534L171.111 185.266L202.657 214.997L192.113 224.933L181.57 234.87L139.397 195.124L97.2241 155.378L136.719 118.156L176.213 80.9337L186.842 90.9475L197.472 100.961L168.518 128.248Z"/>
</svg>
