<svg width="16" height="16" viewBox="0 0 16 16" fill="none"
    xmlns="http://www.w3.org/2000/svg">
    <path fill-rule="evenodd" clip-rule="evenodd" d="M0 0.4C0 0.179086 0.179086 0 0.4 0H6.8C6.90609 0 7.00783 0.0421427 7.08284 0.117157L9.76569 2.8H12.8C12.9061 2.8 13.0078 2.84214 13.0828 2.91716L15.8828 5.71716C15.9579 5.79217 16 5.89391 16 6V15.6C16 15.8209 15.8209 16 15.6 16H5.6C5.37909 16 5.2 15.8209 5.2 15.6V13.2H0.4C0.179086 13.2 0 13.0209 0 12.8V0.4ZM5.2 12.4V11.2C5.2 10.9791 5.37909 10.8 5.6 10.8C5.82091 10.8 6 10.9791 6 11.2V15.2H15.2V6.16569L12.6343 3.6H6V6C6 6.22091 5.82091 6.4 5.6 6.4C5.37909 6.4 5.2 6.22091 5.2 6V3.2C5.2 2.97909 5.37909 2.8 5.6 2.8H8.63431L6.63432 0.8H0.8V12.4H5.2ZM7.31716 6.11716C7.47337 5.96095 7.72663 5.96095 7.88284 6.11716L9.88284 8.11716C10.0391 8.27337 10.0391 8.52663 9.88284 8.68284L7.88284 10.6828C7.72663 10.8391 7.47337 10.8391 7.31716 10.6828C7.16095 10.5266 7.16095 10.2734 7.31716 10.1172L8.63431 8.8H4C3.77909 8.8 3.6 8.62091 3.6 8.4C3.6 8.17909 3.77909 8 4 8H8.63431L7.31716 6.68284C7.16095 6.52663 7.16095 6.27337 7.31716 6.11716Z" fill="white"/>
</svg>
