<svg width="288" height="249" viewBox="0 0 288 249" fill="none"
    xmlns="http://www.w3.org/2000/svg">
    <path fill-rule="evenodd" clip-rule="evenodd" d="M251.381 12.4577V19.3635L200.859 56.8584L189.914 56.8585L223.332 12.4579L251.381 12.4577ZM312.943 12.4577V19.3635L262.422 56.8584L251.488 56.8585L284.917 12.4579L312.943 12.4577ZM20.1091 0.888184H177.883L75.1951 103.664C77.8396 103.405 80.521 103.272 83.2332 103.272C128.299 103.272 164.833 139.806 164.833 184.872C164.833 219.734 193.094 247.996 227.957 247.996C262.819 247.996 291.081 219.734 291.081 184.872C291.081 150.009 262.819 121.748 227.957 121.748C209.763 121.748 193.378 129.433 181.847 141.761C178.973 134.984 177.093 131.312 171.761 125.707C186.385 111.813 206.18 103.272 227.957 103.272C273.023 103.272 309.556 139.806 309.556 184.872C309.556 229.938 273.023 266.471 227.957 266.471C196.51 266.471 169.219 248.683 155.595 222.62C141.971 248.683 114.679 266.471 83.2332 266.471C59.7155 266.471 38.5098 256.51 23.6308 240.604C9.99457 226.026 1.63379 206.415 1.63379 184.872C1.63379 184.872 18.1076 247.996 83.2332 247.996C118.096 247.996 146.357 219.734 146.357 184.872C146.357 150.009 118.096 121.748 83.2332 121.748C66.5987 121.748 51.4767 128.172 40.1933 138.695L36.9119 141.979V115.84L133.307 19.3635H1.63379L20.1091 0.888184Z" stroke="white" stroke-linecap="square"/>
    <path d="M270.033 184.875C270.033 208.094 251.21 226.918 227.99 226.918C204.771 226.918 185.948 208.094 185.948 184.875C185.948 161.655 204.771 142.832 227.99 142.832C251.21 142.832 270.033 161.655 270.033 184.875Z" stroke="white"/>
</svg>
