<svg width="100" height="45" viewBox="0 0 100 45" fill="none" xmlns="http://www.w3.org/2000/svg">
<path d="M13.2716 44.8598C10.4321 44.8598 8.0144 44.4706 6.01852 43.6922C4.02263 42.9138 2.52058 41.9101 1.51235 40.6811C0.504115 39.4521 0 38.182 0 36.8711C0 35.4782 0.421811 34.3618 1.26543 33.522C2.10905 32.6821 3.23045 32.2622 4.62963 32.2622C4.95885 32.2622 5.28807 32.2929 5.61728 32.3544C5.9465 32.4158 6.17284 32.4465 6.2963 32.4465L7.09877 32.5695V42.4017C7.13992 42.4017 7.57202 42.5656 8.39506 42.8934C9.46502 43.1801 10.679 43.3235 12.037 43.3235C14.9177 43.3235 17.1296 42.4529 18.6728 40.7118C20.216 38.9707 20.9877 36.359 20.9877 32.8767C20.9877 29.3125 20.2366 26.6291 18.7346 24.8265C17.2325 23.0239 15.2058 22.1226 12.6543 22.1226H9.5679V20.5864H12.6543C14.5062 20.5864 16.0494 19.767 17.284 18.1283C18.5185 16.4896 19.1358 14.1339 19.1358 11.0613C19.1358 7.98873 18.4979 5.63308 17.2222 3.99437C15.9465 2.35565 14.321 1.53629 12.3457 1.53629C11.2757 1.53629 10.2469 1.70017 9.25926 2.02791C9.1358 2.06888 8.72428 2.21226 8.02469 2.45807V12.2904L7.22222 12.4747C6.56379 12.5567 6.00823 12.5976 5.55556 12.5976C4.15638 12.5976 3.03498 12.1777 2.19136 11.3379C1.34774 10.498 0.925926 9.38164 0.925926 7.98873C0.925926 6.71873 1.41975 5.46921 2.40741 4.24017C3.39506 3.01114 4.84568 1.99718 6.75926 1.19831C8.67284 0.399437 10.9465 0 13.5802 0C17.037 0 19.9691 0.501856 22.3765 1.50557C24.784 2.50928 26.5947 3.85098 27.8086 5.53066C29.0226 7.21034 29.6296 9.0539 29.6296 11.0613C29.6296 13.3965 29.0329 15.2503 27.8395 16.6227C26.6461 17.9951 25.0823 19.091 23.1481 19.9104C21.2551 20.6478 19.0947 21.078 16.6667 21.2009V21.5081C19.3827 21.631 21.8519 22.1022 24.0741 22.9215C29.0123 24.888 31.4815 28.2064 31.4815 32.8767C31.4815 36.4819 29.9897 39.3804 27.0062 41.5721C24.0226 43.7639 19.4444 44.8598 13.2716 44.8598Z" fill="white"/>
<path d="M55.2469 44.8598C51.9136 44.8598 48.8889 43.979 46.1729 42.2174C43.4568 40.4558 41.3066 37.885 39.7222 34.5052C38.1379 31.1253 37.3457 27.1002 37.3457 22.4299C37.3457 17.7596 38.1379 13.7345 39.7222 10.3546C41.3066 6.97478 43.4568 4.40405 46.1729 2.64243C48.8889 0.880809 51.9136 0 55.2469 0C58.5803 0 61.605 0.880809 64.321 2.64243C67.0371 4.40405 69.1873 6.97478 70.7716 10.3546C72.356 13.7345 73.1482 17.7596 73.1482 22.4299C73.1482 27.1002 72.356 31.1253 70.7716 34.5052C69.1873 37.885 67.0371 40.4558 64.321 42.2174C61.605 43.979 58.5803 44.8598 55.2469 44.8598ZM55.2469 43.6308C59.9794 43.6308 62.3457 36.5638 62.3457 22.4299C62.3457 8.29599 59.9794 1.22904 55.2469 1.22904C50.5144 1.22904 48.1482 8.29599 48.1482 22.4299C48.1482 36.5638 50.5144 43.6308 55.2469 43.6308Z" fill="white"/>
<path d="M80.2468 15.3628C81.111 15.076 81.9752 14.6049 82.8394 13.9494C84.609 12.6385 85.6995 10.8564 86.111 8.60312L85.3085 9.09474C84.7736 9.38151 84.1151 9.5249 83.3332 9.5249C82.0987 9.5249 81.0184 9.06401 80.0925 8.14223C79.1666 7.22046 78.7036 6.14505 78.7036 4.91601C78.7036 3.68698 79.1666 2.61157 80.0925 1.68979C81.0184 0.768017 82.0987 0.307129 83.3332 0.307129C84.7736 0.307129 85.9567 0.808985 86.8826 1.8127C87.8085 2.81641 88.2715 4.15811 88.2715 5.83779C88.2715 9.60683 87.0369 12.5565 84.5678 14.6869C83.4979 15.6701 82.2633 16.4075 80.8641 16.8991L80.2468 15.3628ZM91.9752 15.3628C92.8394 15.076 93.7036 14.6049 94.5678 13.9494C96.3374 12.6385 97.4279 10.8564 97.8394 8.60312L97.0369 9.09474C96.502 9.38151 95.8435 9.5249 95.0616 9.5249C93.8271 9.5249 92.7468 9.06401 91.8209 8.14223C90.895 7.22046 90.432 6.14505 90.432 4.91601C90.432 3.68698 90.895 2.61157 91.8209 1.68979C92.7468 0.768017 93.8271 0.307129 95.0616 0.307129C96.502 0.307129 97.6851 0.808985 98.611 1.8127C99.5369 2.81641 99.9999 4.15811 99.9999 5.83779C99.9999 9.60683 98.7653 12.5565 96.2962 14.6869C95.2262 15.6701 93.9917 16.4075 92.5925 16.8991L91.9752 15.3628Z" fill="white"/>
</svg>
