<svg width="120" height="110" viewBox="0 0 120 110" fill="none"
    xmlns="http://www.w3.org/2000/svg">
    <path d="M66.0079 0.884958L66.008 0.884918C66.6967 0.381723 67.629 0.370928 68.3295 0.858195L68.6147 0.448172L68.3295 0.8582L82.7045 10.8582L82.7045 10.8582C83.2421 11.2321 83.5625 11.8453 83.5625 12.5V47.7155V48.6724L84.348 48.1259L94.7955 40.8582L94.51 40.4477L94.7956 40.8582C95.4819 40.3806 96.3931 40.3806 97.0794 40.8582L97.0795 40.8582L111.454 50.858C111.992 51.232 112.312 51.8452 112.312 52.5V105V105.5H112.812H117.5C118.604 105.5 119.5 106.396 119.5 107.5C119.5 108.604 118.604 109.5 117.5 109.5H110.312H95.9375H81.5625H67.1875H43.2291H28.8542H9.6875H2.5C1.39546 109.5 0.5 108.604 0.5 107.5C0.5 106.396 1.39546 105.5 2.5 105.5H7.1875H7.6875V105V47.5C7.6875 46.8848 7.97049 46.304 8.45496 45.9247L27.6216 30.925L27.3134 30.5312L27.6216 30.925C28.3127 30.3841 29.2758 30.357 29.9963 30.8582L40.4436 38.1259L41.2291 38.6724V37.7154V20C41.2291 19.3616 41.534 18.7615 42.0495 18.385L66.0079 0.884958ZM45.2292 42.5288H45.2291V42.5355V105V105.5H45.7291H64.6875H65.1875V105V7.422V6.4376L64.3926 7.01824L45.4342 20.866L45.2291 21.0158V21.2698L45.2291 42.4688L45.2292 42.4756C45.2294 42.4933 45.2294 42.511 45.2292 42.5288ZM41.2291 43.8063V43.545L41.0147 43.3958L31.6397 36.8741L30.8542 36.3276V37.2845V105V105.5H31.3542H40.7291H41.2291V105V43.8063ZM26.3542 105.5H26.8542V105V37.6311V36.6049L26.046 37.2373L11.8793 48.3242L11.6875 48.4744V48.718V105V105.5H12.1875H26.3542ZM69.1875 105V105.5H69.6875H79.0625H79.5625V105V52.5V13.8063V13.545L79.348 13.3958L69.973 6.87409L69.1875 6.32764V7.28455V105ZM83.5625 105V105.5H84.0625H93.4375H93.9375V105V47.2845V46.3276L93.152 46.874L83.777 53.396L83.5625 53.5452V53.8065V105ZM98.723 46.874L97.9375 46.3276V47.2845V105V105.5H98.4375H107.812H108.312V105V53.8065V53.5452L108.098 53.396L98.723 46.874Z" fill="#D00737" fill-opacity="0.8" stroke="white"/>
</svg>
