<svg width="406" height="393" viewBox="0 0 406 393" fill="none" xmlns="http://www.w3.org/2000/svg">
<path fill-rule="evenodd" clip-rule="evenodd" d="M189.745 2.24297C184.635 5.00454 181.496 7.943 178.597 12.6833C176.694 15.7934 119.229 125.393 105.015 153.022C102.616 157.683 100.326 161.973 99.9238 162.556C99.5219 163.138 97.2394 167.428 94.8523 172.089C89.8192 181.915 85.0765 191.066 81.1264 198.572C79.5939 201.485 63.622 231.992 45.6355 266.366C27.649 300.74 11.0123 332.439 8.66581 336.809C0.596141 351.84 -0.0178913 353.641 0.000377385 362.232C0.0135714 368.316 0.559606 371.34 2.33268 375.15C5.61698 382.204 11.7898 388.23 18.3644 390.796C23.9222 392.967 24.4865 392.973 203.768 392.698L383.595 392.421L389.249 389.654C398.879 384.94 405.423 374.319 405.41 363.422C405.402 356.004 403.809 351.36 396.292 336.851C392.508 329.545 387.932 320.707 386.126 317.212C384.319 313.716 381.814 308.949 380.559 306.619C379.304 304.288 376.675 299.283 374.716 295.496C372.757 291.709 368.188 282.891 364.563 275.9C360.936 268.908 356.017 259.375 353.629 254.714C351.242 250.053 348.952 245.763 348.54 245.18C348.129 244.598 345.861 240.307 343.499 235.647C341.138 230.986 338.16 225.266 336.88 222.935C335.602 220.605 330.238 210.356 324.96 200.16C319.684 189.965 312.868 176.856 309.816 171.03C306.765 165.204 302.296 156.624 299.886 151.963C297.477 147.302 292.761 138.245 289.405 131.836C286.051 125.428 281.49 116.609 279.269 112.239C277.05 107.87 273.925 102.024 272.325 99.2473C270.726 96.4709 269.416 94.0261 269.416 93.8153C269.416 93.6034 267.306 89.4394 264.728 84.5624C257.509 70.9071 256.525 69.0173 241.954 40.8689C222.873 4.00986 218.882 -0.0917009 202.189 0.00151651C195.755 0.0375323 192.86 0.558703 189.745 2.24297ZM232.365 123.097L235.008 125.481L233.961 156.73C232.638 196.199 230.825 235.097 230.199 237.467C229.381 240.562 222.999 241.461 201.821 241.466C180.008 241.473 175.344 240.687 174.533 236.865C173.802 233.422 173.122 217.896 172.114 181.623C171.612 163.562 170.856 143.7 170.434 137.487L169.665 126.187L172.495 123.451L175.325 120.714H202.523C229.269 120.714 229.765 120.753 232.365 123.097ZM227.551 273.24L230.849 275.339V301.852V328.365L227.551 330.465C224.531 332.386 222.394 332.564 202.256 332.567L180.258 332.572L177.136 329.829L174.013 327.086V301.96C174.013 275.727 174.142 274.889 178.581 272.356C179.867 271.621 188.6 271.187 202.431 271.169C222.425 271.143 224.528 271.316 227.551 273.24Z"/>
</svg>
