<svg width="13" height="16" viewBox="0 0 13 16" fill="none" xmlns="http://www.w3.org/2000/svg">
<mask id="path-1-inside-1_322_181" fill="white">
<path d="M8.65538 13.8979C8.65538 14.6939 8.231 15.303 7.5419 15.7013C6.85296 16.0993 6.00404 16.0993 5.31636 15.7013C4.62694 15.3031 4.20288 14.6939 4.20288 13.8979"/>
</mask>
<path d="M7.5419 15.7013L8.04209 16.5673L8.04232 16.5671L7.5419 15.7013ZM5.31636 15.7013L5.81724 14.8358L5.81658 14.8354L5.31636 15.7013ZM7.65538 13.8979C7.65538 14.2714 7.48247 14.5807 7.04148 14.8356L8.04232 16.5671C8.97953 16.0254 9.65538 15.1163 9.65538 13.8979H7.65538ZM7.04171 14.8354C6.66198 15.0548 6.19478 15.0543 5.81724 14.8358L4.81548 16.5669C5.81329 17.1443 7.04394 17.1438 8.04209 16.5673L7.04171 14.8354ZM5.81658 14.8354C5.37568 14.5807 5.20288 14.2717 5.20288 13.8979H3.20288C3.20288 15.1161 3.87819 16.0254 4.81614 16.5672L5.81658 14.8354Z" fill="black" mask="url(#path-1-inside-1_322_181)"/>
<path d="M7.61968 2.13054L7.62064 2.13083C9.4084 2.67061 10.4434 3.88691 10.4434 5.38757V8.37927C10.4434 9.13687 10.6 9.66459 10.9112 10.0819C11.1504 10.4025 11.4745 10.6364 11.7554 10.8391C11.8094 10.8781 11.8618 10.916 11.9117 10.953L11.912 10.9532C12.2723 11.2205 12.3954 11.6194 12.347 11.9261C12.3231 12.0775 12.2606 12.1913 12.1829 12.2639C12.1102 12.3318 12.0002 12.3872 11.8262 12.3871H11.8258H1.03123H1.03076C0.856853 12.3872 0.746832 12.3318 0.674199 12.264C0.59648 12.1913 0.533959 12.0775 0.510071 11.9261C0.461666 11.6193 0.584673 11.2205 0.944998 10.9532L0.945548 10.9528C0.995629 10.9156 1.04827 10.8775 1.10254 10.8383C1.38281 10.6358 1.70653 10.402 1.94541 10.0818C2.25671 9.66463 2.41358 9.13697 2.41358 8.37929C2.41358 8.37928 2.41358 8.37927 2.41358 8.37927L2.41374 5.38776V5.38773C2.41374 3.88708 3.4488 2.67078 5.23652 2.13099L5.23779 2.1306C5.5728 2.02848 5.72251 1.76239 5.78118 1.53739C5.83188 1.34297 5.83236 1.11881 5.83236 0.95059C5.83248 0.730781 6.01049 0.5 6.42835 0.5C6.84749 0.5 7.0248 0.731012 7.0248 0.950151C7.0248 1.11798 7.02507 1.34248 7.07567 1.53699C7.13436 1.76262 7.28439 2.02856 7.61968 2.13054Z" stroke="black"/>
</svg>
