<svg width="16" height="16" viewBox="0 0 16 16" fill="none" xmlns="http://www.w3.org/2000/svg">
<path fill-rule="evenodd" clip-rule="evenodd" d="M6.64557 0.949367C3.49964 0.949367 0.949367 3.49964 0.949367 6.64557C0.949367 9.79151 3.49964 12.3418 6.64557 12.3418C9.79151 12.3418 12.3418 9.79151 12.3418 6.64557C12.3418 3.49964 9.79151 0.949367 6.64557 0.949367ZM0 6.64557C0 2.97532 2.97532 0 6.64557 0C10.3158 0 13.2911 2.97532 13.2911 6.64557C13.2911 10.3158 10.3158 13.2911 6.64557 13.2911C2.97532 13.2911 0 10.3158 0 6.64557Z" fill="#333333"/>
<path fill-rule="evenodd" clip-rule="evenodd" d="M11.4027 10.7314L15.6645 14.9932C15.8499 15.1786 15.8499 15.4791 15.6645 15.6645C15.4791 15.8499 15.1786 15.8499 14.9932 15.6645L10.7314 11.4027L11.4027 10.7314Z" fill="#333333"/>
</svg>
