<svg width="1275" height="1149" viewBox="0 0 1275 1149" fill="none" xmlns="http://www.w3.org/2000/svg">
<path fill-rule="evenodd" clip-rule="evenodd" d="M618.929 0.99656C569.706 6.65556 526.355 31.8606 498.874 70.7966C492.286 80.1306 27.2682 884.211 17.9322 902.411C10.7282 916.455 4.7322 934.793 1.9202 951.375C-0.959802 968.365 -0.551802 995.622 2.8192 1011.37C18.8222 1086.15 77.3082 1139.5 152.429 1147.85C159.668 1148.65 295.376 1148.86 643.929 1148.61C1081.26 1148.3 1126.12 1148.12 1132.93 1146.66C1171.25 1138.46 1196.34 1125.75 1221.14 1101.99C1275.57 1049.84 1290.01 970.104 1257.02 903.875C1251.69 893.168 786.336 87.2616 779.2 76.3746C763.316 52.1386 737.65 29.4316 712.58 17.4336C683.202 3.37456 649.577 -2.52744 618.929 0.99656ZM662.929 46.4046C680.377 50.1816 697.245 57.5836 711.041 67.5166C720.327 74.2026 734.786 88.8126 740.589 97.3746C742.826 100.675 803.28 204.85 874.931 328.875C946.582 452.9 1052.92 636.95 1111.23 737.875C1171.67 842.476 1218.87 925.245 1221.01 930.375C1230.6 953.307 1233.21 978.912 1228.38 1002.53C1217.7 1054.76 1176.33 1094.99 1124.68 1103.37C1116.55 1104.68 1057.54 1104.87 636.81 1104.87C211.348 1104.87 157.205 1104.7 149.31 1103.34C108.275 1096.26 73.3812 1069.87 56.0002 1032.76C47.3852 1014.37 43.8272 998.645 43.7512 978.607C43.6762 959.173 47.2472 942.776 55.3202 925.476C57.1422 921.57 139.76 777.975 238.915 606.375C338.07 434.775 443.468 252.3 473.134 200.875C502.799 149.45 529.554 103.664 532.59 99.1286C552.668 69.1356 583.424 50.4326 622.429 44.4956C628.637 43.5506 655.62 44.8226 662.929 46.4046ZM596.204 283.414C588.803 285.407 579.733 290.147 570.305 296.949C562.416 302.64 562.037 302.794 557.233 302.225C550.668 301.447 548.372 302.767 537.951 313.303C533.288 318.018 528.923 321.875 528.251 321.875C527.578 321.875 526.576 321.087 526.023 320.125C525.155 318.614 523.207 320.18 511.778 331.575C498.769 344.545 498.562 344.821 499.923 347.363C501.267 349.875 501.084 350.175 493.671 357.663C484.742 366.68 483.402 369.385 485.085 375C486.221 378.794 486.143 379.059 482.9 382.405C481.05 384.313 479.046 385.875 478.445 385.875C477.845 385.875 475.138 383.625 472.429 380.875C469.72 378.125 466.807 375.875 465.954 375.875C465.102 375.875 457.66 382.645 449.416 390.919L434.429 405.963L461.31 432.533L488.192 459.104L503.793 443.503L519.394 427.902L513.448 421.894L507.502 415.885L511.181 412.414C514.798 409.003 514.971 408.954 521.377 409.552L527.894 410.161L536.824 401.423C543.724 394.671 546.197 392.825 547.706 393.304C548.78 393.645 567.607 411.641 589.544 433.294L629.429 472.665L605.524 497.02C592.377 510.415 580.521 522.403 579.178 523.66C576.833 525.854 576.288 525.918 565.497 525.273C544.728 524.031 530.523 529.243 516.334 543.309C507.114 552.449 501.91 561.749 499.408 573.56C497.068 584.603 498.014 602.781 500.873 601.687C501.321 601.515 511.944 591.328 524.479 579.048L547.27 556.722L568.849 578.309L590.429 599.896L567.198 623.071C554.422 635.818 544.109 646.388 544.281 646.56C544.453 646.732 548.236 647.363 552.689 647.962C577.837 651.346 603.561 637.62 614.804 614.817C620.565 603.133 622.286 594.219 621.427 580.512L620.746 569.649L643.31 547.021L665.874 524.394L723.697 582.134C776.419 634.782 781.807 639.875 784.774 639.875C786.564 639.875 789.243 639.231 790.729 638.443C793.956 636.733 821.237 609.316 822.821 606.191C824.595 602.693 824.115 598.749 821.45 594.929C820.086 592.974 794.436 567.15 764.45 537.542C734.463 507.934 709.929 482.947 709.929 482.016C709.929 481.084 721.139 469.145 734.84 455.483L759.752 430.645L770.59 431.339C784.287 432.217 793.19 430.505 804.929 424.735C824.074 415.325 836.68 396.291 838.54 373.982C839.147 366.709 837.645 354.875 836.116 354.875C835.747 354.875 825.205 365.107 812.69 377.614L789.935 400.352L777.182 387.806C770.168 380.906 760.717 371.715 756.179 367.383C751.641 363.05 747.929 358.791 747.929 357.919C747.929 357.047 752.026 352.293 757.033 347.354C762.041 342.416 772.004 332.075 779.175 324.375L792.212 310.375L788.321 309.683C782.28 308.608 768.591 308.759 762.728 309.965C741.029 314.429 720.894 334.437 716.279 356.123C715.109 361.619 714.897 366.258 715.402 375.282L716.068 387.188L686.248 416.46L656.429 445.731L615.182 404.561L573.935 363.39L582.873 355.106C587.789 350.549 592.154 345.821 592.573 344.598C592.992 343.375 593.356 340.161 593.382 337.454C593.429 332.565 593.469 332.505 599.589 328.309C615.407 317.465 632.333 315.386 650.999 321.998C667.759 327.934 666.758 327.836 670.12 323.863L673.072 320.375L663.832 311.567C647.998 296.473 631.125 286.509 615.955 283.293C607.853 281.576 602.918 281.606 596.204 283.414ZM240.929 792.215C240.929 829.844 241.103 834.235 242.867 841.134C245.537 851.57 248.193 856.328 255.317 863.427C265.817 873.892 274.522 876.746 298.429 877.564C321.522 878.354 333.637 874.993 344.403 864.811C351.293 858.295 355.123 852.277 358.046 843.375C360.272 836.596 360.356 835.024 360.704 793.625L361.063 750.875H341.496H321.929V790.432C321.929 817.101 321.551 831.489 320.77 834.591C317.268 848.498 297.666 853.607 286.253 843.586C279.408 837.576 279.464 837.98 279.119 792.125L278.808 750.875H259.869H240.929V792.215ZM411.929 813.375V875.875H430.416H448.902L449.166 842.278L449.429 808.681L472.341 842.278L495.253 875.875H513.591H531.929V813.375V750.875H513.442H494.955L494.692 784.707L494.429 818.54L471.429 784.711L448.429 750.883L430.179 750.879L411.929 750.875V813.375ZM583.929 813.375V875.875L616.179 875.862C651.974 875.847 661.296 874.763 671.923 869.378C683.158 863.685 692.793 850.921 696.667 836.6C699.066 827.731 699.036 801.063 696.616 791.44C692.626 775.575 682.791 762.41 670.513 756.499C660.653 751.752 652.914 750.948 616.679 750.91L583.929 750.875V813.375ZM744.929 813.375V875.875H797.929H850.929V861.875V847.875H817.429H783.929V835.375V822.875H813.929H843.929V810.375V797.875H813.929H783.929V787.875V777.875H816.429H848.929V764.375V750.875H796.929H744.929V813.375ZM897.929 813.297V875.875H917.429H936.929V850.287V824.699L941.179 825.405C950.458 826.947 950.102 826.511 965.994 855.862L976.559 875.375L998.627 875.644L1020.7 875.913L1010.56 856.349C998.862 833.759 993.24 826.024 986.51 823.256C981.756 821.301 980.6 819.875 983.769 819.875C987.208 819.875 997.747 813.819 1001.46 809.709C1007.52 803.001 1010.2 795.948 1010.28 786.477C1010.38 775.948 1008.16 769.464 1002.23 762.863C992.595 752.148 989.985 751.663 939.179 751.143L897.929 750.72V813.297ZM964.714 777.95C966.41 778.541 968.577 780.215 969.53 781.669C971.913 785.306 971.778 792.254 969.258 795.663C966.593 799.269 957.198 801.717 945.679 801.807L936.929 801.875V789.375V776.875H949.28C956.073 776.875 963.018 777.359 964.714 777.95ZM645.254 781.47C651.281 783.524 656.324 789.312 658.1 796.213C659.816 802.879 659.812 826.868 658.094 832.682C656.43 838.312 650.733 844.557 646.081 845.85C644.072 846.407 638.041 846.866 632.679 846.869L622.929 846.875V813.375V779.875H631.751C637.203 779.875 642.361 780.484 645.254 781.47ZM135.803 900.861C118.651 903.068 107.102 912.691 102.185 928.875C99.9952 936.081 99.9882 953.386 102.172 960.497C106.066 973.176 114.426 982.648 125.069 986.439C136.107 990.372 155.724 990.089 164.436 985.872C173.298 981.582 181.468 971.423 183.332 962.375L183.95 959.375L172.69 956.102C166.496 954.302 161.091 952.839 160.679 952.852C160.267 952.865 159.929 953.633 159.929 954.559C159.929 957.844 155.611 965.098 152.542 966.969C148.003 969.737 139.255 969.561 134.827 966.612C129.188 962.856 127.475 958.033 127.462 945.875C127.448 933.656 128.624 929.532 133.455 924.85C136.518 921.881 137.704 921.422 143.186 921.084C148.472 920.759 149.952 921.058 152.842 923.037C154.719 924.323 157.083 926.98 158.095 928.942L159.935 932.508L171.43 929.942C177.752 928.53 182.926 927.01 182.927 926.563C182.933 924.085 177.42 914.75 173.719 910.971C168.234 905.371 161.134 902.105 151.817 900.896C143.654 899.836 143.767 899.836 135.803 900.861ZM229.429 900.891C206.662 903.98 193.712 919.861 193.712 944.693C193.712 960.746 197.878 971.259 207.646 979.857C216.024 987.232 231.319 990.791 246.412 988.877C267.085 986.256 279.334 973.791 282.071 952.589C284.728 932.001 276.959 913.032 262.939 905.88C254.307 901.476 240.389 899.404 229.429 900.891ZM421.979 900.926C413.229 902.109 403.613 906.949 399.94 912.018C396.65 916.56 394.678 924.301 395.591 929.09C397.839 940.88 406.058 947.107 426.318 952.371C436.558 955.032 439.241 956.095 442.179 958.658C443.934 960.19 444.47 964.303 443.308 967.33C442.324 969.895 437.453 971.875 432.127 971.875C425.19 971.875 420.883 968.814 418.929 962.494L417.429 957.643L408.525 958.259C403.628 958.598 397.87 958.875 395.73 958.875H391.838L392.464 962.625C393.478 968.711 398.711 978.55 402.668 981.812C407.394 985.707 413.423 987.742 423.826 988.953C433.572 990.087 446.073 988.765 452.551 985.914C463.049 981.296 469.902 971.106 469.919 960.093C469.943 944.709 462.131 937.943 436.749 931.365C429.577 929.507 422.859 927.216 421.819 926.276C414.602 919.744 430.201 913.026 437.779 919.402C439.431 920.792 441.088 923.322 441.462 925.023C442.127 928.052 442.238 928.105 446.675 927.496C449.168 927.155 454.183 926.868 457.819 926.86C466.928 926.839 467.7 926.215 466.096 920.179C463.615 910.839 457.899 905.319 447.793 902.502C440.647 900.511 429.898 899.855 421.979 900.926ZM793.085 900.926C785.652 901.92 775.864 906.237 770.638 910.826C761.831 918.558 756.671 936.597 758.829 952.109C760.553 964.505 763.31 970.44 770.838 977.958C778.336 985.446 782.766 987.429 795.259 988.89C816.567 991.382 830.683 985.085 838.409 969.642C840.345 965.773 841.926 961.879 841.922 960.991C841.917 959.8 839.009 958.514 830.867 956.1C824.791 954.298 819.444 953.057 818.985 953.34C818.526 953.624 817.841 955.098 817.462 956.616C816.373 960.978 812.989 965.793 809.882 967.399C805.403 969.716 796.871 969.31 792.827 966.588C788.548 963.707 787.007 960.502 785.714 951.793C784.461 943.348 785.926 931.705 788.717 927.935C796.109 917.952 811.051 918.52 816.186 928.981L817.944 932.561L829.186 930.083C835.37 928.72 840.594 927.464 840.795 927.291C841.617 926.585 838.659 920.046 835.302 915.15C827.432 903.67 811.841 898.417 793.085 900.926ZM1019.93 901.036C1006.67 902.902 994.722 911.22 989.611 922.137C982.463 937.403 983.532 959.062 992.062 971.836C998.927 982.117 1007.66 987.039 1022.24 988.851C1053.79 992.772 1073.93 975.771 1073.93 945.214C1073.93 934.646 1072.47 927.812 1068.67 920.607C1062.96 909.776 1052.1 902.893 1037.61 900.933C1028.91 899.757 1029.03 899.756 1019.93 901.036ZM296.929 944.845V987.875H309.411H321.892L322.161 964.71L322.429 941.545L338.231 964.71L354.034 987.875H366.481H378.929V944.875V901.875H366.447H353.966L353.697 924.992L353.429 948.109L337.809 925.242L322.189 902.375L309.559 902.095L296.929 901.815V944.845ZM476.929 912.347V922.819L490.471 923.097L504.013 923.375L504.221 955.375L504.429 987.375L517.665 987.654L530.901 987.933L531.165 955.654L531.429 923.375L544.679 923.096L557.929 922.817V912.346V901.875H517.429H476.929V912.347ZM570.929 944.797V987.875H584.429H597.929V970.25V952.625L601.179 953.247C605.848 954.141 609.415 958.662 617.726 974.217L625.024 987.875H640.06C648.33 987.875 654.946 987.53 654.762 987.108C654.579 986.686 651.346 980.328 647.578 972.98C640.762 959.688 633.911 950.875 630.396 950.875C627.902 950.875 629.645 949.096 632.823 948.398C636.913 947.5 643.88 941.193 646.043 936.431C650.016 927.684 647.813 914.781 641.305 908.678C634.971 902.738 633.146 902.441 600.679 902.064L570.929 901.719V944.797ZM661.176 931.125C661.666 963.233 662.274 967.155 668.062 975.568C671.263 980.22 677.467 984.889 682.922 986.749C689.002 988.823 704.17 989.922 712.366 988.883C722.96 987.54 728.993 984.68 734.926 978.188C743.228 969.104 743.929 965.412 743.929 930.77V901.875H730.429H716.929V931.39V960.904L713.574 964.565C710.569 967.844 709.594 968.272 704.234 968.659C696.444 969.223 692.457 967.251 689.872 961.559C688.155 957.775 687.971 954.722 687.951 929.625L687.929 901.875H674.329H660.729L661.176 931.125ZM848.929 912.375V922.875H862.429H875.929V955.375V987.875H889.429H902.929V955.375V922.875H916.429H929.929V912.375V901.875H889.429H848.929V912.375ZM942.929 944.875V987.933L955.953 987.654L968.977 987.375V944.875V902.375L955.953 902.096L942.929 901.817V944.875ZM1087.93 944.875V987.875H1100.93H1113.93V964.696V941.517L1129.67 964.696L1145.42 987.875H1158.17H1170.93V944.875V901.875H1158.45H1145.97L1145.7 925.44L1145.43 949.005L1129.44 925.44L1113.45 901.875H1100.69H1087.93V944.875ZM617.163 920.972C620.138 922.204 621.289 924.907 620.757 929.405C620.218 933.962 616.486 935.862 606.723 936.551L598.084 937.161L597.757 928.43C597.576 923.628 597.503 919.626 597.593 919.537C598.297 918.841 614.969 920.063 617.163 920.972ZM245.258 922.239C253.031 925.487 256.714 935.017 255.546 948.86C254.372 962.786 249.078 968.875 238.145 968.875C228.779 968.875 223.892 964.797 221.345 954.854C218.698 944.52 220.687 931.176 225.717 925.525C229.651 921.105 238.844 919.559 245.258 922.239ZM1037.87 922.844C1039.99 923.927 1042.79 926.514 1044.08 928.594C1046.22 932.037 1046.43 933.492 1046.43 944.875C1046.43 955.683 1046.15 957.848 1044.38 960.872C1041.06 966.521 1036.66 968.875 1029.43 968.875C1017.76 968.875 1012.78 962.7 1012.11 947.402C1011.52 933.834 1013.98 927.252 1021.34 922.766C1025.44 920.269 1032.89 920.304 1037.87 922.844ZM83.4292 1017.87C83.7692 1018.42 84.4942 1018.87 85.0412 1018.87C85.5872 1018.87 118.459 1031.26 158.088 1046.39L230.141 1073.91L251.621 1073.64L273.1 1073.37L199.112 1045.12L125.123 1016.87H103.967C90.1182 1016.87 83.0242 1017.22 83.4292 1017.87ZM171.479 1017.76C172.001 1018.24 205 1031.08 244.809 1046.28L317.19 1073.91L338.732 1073.64L360.274 1073.37L286.288 1045.12L212.302 1016.87H191.415C179.279 1016.87 170.927 1017.24 171.479 1017.76ZM258.479 1017.74C259.001 1018.21 292.055 1031.05 331.93 1046.26L404.432 1073.92L425.91 1073.65L447.389 1073.37L373.409 1045.12L299.429 1016.87H278.479C266.665 1016.87 257.943 1017.25 258.479 1017.74ZM345.479 1017.72C346.001 1018.18 379.054 1031.01 418.929 1046.22L491.429 1073.88L513.429 1073.84L535.429 1073.81L461.041 1045.34L386.652 1016.87H365.591C354.007 1016.87 344.957 1017.25 345.479 1017.72ZM432.479 1017.7C433.001 1018.16 466.124 1030.99 506.085 1046.22L578.742 1073.91L600.208 1073.64L621.675 1073.37L547.723 1045.12L473.772 1016.87H452.651C441.034 1016.87 431.957 1017.25 432.479 1017.7ZM519.429 1017.87C519.769 1018.42 520.449 1018.87 520.941 1018.87C521.432 1018.87 554.267 1031.26 593.908 1046.39L665.981 1073.91L687.429 1073.64L708.876 1073.37L634.917 1045.12L560.958 1016.87H539.885C526.09 1016.87 519.024 1017.22 519.429 1017.87ZM606.929 1017.81C607.754 1018.29 640.965 1031.11 680.73 1046.3L753.032 1073.91L774.531 1073.64L796.031 1073.37L722.094 1045.12L648.156 1016.87L626.793 1016.9C614.128 1016.92 606.04 1017.29 606.929 1017.81ZM693.085 1017.36C693.355 1017.63 726.563 1030.47 766.881 1045.88L840.187 1073.91L861.682 1073.64L883.178 1073.37L809.235 1045.12L735.292 1016.87H713.944C702.202 1016.87 692.816 1017.09 693.085 1017.36ZM781.479 1017.75C782.001 1018.23 815.054 1031.07 854.929 1046.28L927.429 1073.93L948.88 1073.65L970.331 1073.37L896.376 1045.12L822.421 1016.87H801.475C789.453 1016.87 780.934 1017.25 781.479 1017.75ZM868.479 1017.73C869.001 1018.2 902.054 1031.02 941.929 1046.23L1014.43 1073.88L1036.43 1073.85L1058.43 1073.82L984.02 1045.35L909.611 1016.87H888.57C876.882 1016.87 867.951 1017.25 868.479 1017.73ZM955.479 1017.7C956.001 1018.16 989.098 1030.99 1029.03 1046.2L1101.62 1073.87H1116.12C1129.36 1073.87 1130.78 1073.7 1132.44 1071.87C1133.43 1070.76 1134.07 1069.68 1133.84 1069.47C1133.61 1069.25 1102.67 1057.33 1065.08 1042.97L996.731 1016.87H975.63C964.024 1016.87 954.957 1017.25 955.479 1017.7ZM1042.48 1017.7C1043 1018.16 1066.74 1027.39 1095.24 1038.23L1147.04 1057.93L1149.74 1055.99C1151.22 1054.92 1154.19 1052.22 1156.35 1050L1160.26 1045.95L1157.35 1044.86C1155.74 1044.26 1138.56 1037.72 1119.17 1030.32L1083.92 1016.87H1062.72C1051.07 1016.87 1041.96 1017.25 1042.48 1017.7ZM124.429 1056.42C130.479 1062.21 137.286 1068.52 139.557 1070.44L143.684 1073.91L164.785 1073.64L185.885 1073.37L154.657 1061.48C137.482 1054.94 121.179 1048.75 118.429 1047.73L113.429 1045.87L124.429 1056.42Z"/>
</svg>
